<svg xmlns="http://www.w3.org/2000/svg" xmlns:xlink="http://www.w3.org/1999/xlink" width="500" zoomAndPan="magnify" viewBox="0 0 375 374.999991" height="500" preserveAspectRatio="xMidYMid meet" version="1.0"><defs><g/><clipPath id="a6f419db49"><path d="M 28.328125 98 L 178 98 L 178 247.613281 L 28.328125 247.613281 Z M 28.328125 98 " clip-rule="nonzero"/></clipPath><clipPath id="008d578420"><path d="M 171.292969 187.5 L 346 187.5 L 346 216 L 171.292969 216 Z M 171.292969 187.5 " clip-rule="nonzero"/></clipPath><clipPath id="de98c8f695"><path d="M 73.421875 141.660156 L 133.421875 141.660156 L 133.421875 201.660156 L 73.421875 201.660156 Z M 73.421875 141.660156 " clip-rule="nonzero"/></clipPath></defs><g clip-path="url(#a6f419db49)"><path fill="#ffde59" d="M 55.3125 187.527344 C 56.980469 192.972656 59.605469 198.207031 63.207031 202.984375 L 65.125 201.5 C 61.710938 196.972656 59.214844 191.992188 57.632812 186.820312 C 55.945312 181.300781 55.292969 175.554688 55.65625 169.875 C 56.023438 164.195312 57.398438 158.585938 59.773438 153.328125 C 62.078125 148.234375 65.320312 143.476562 69.472656 139.324219 C 70.339844 138.457031 71.242188 137.625 72.164062 136.828125 C 73.089844 136.035156 74.050781 135.273438 75.023438 134.5625 C 76.003906 133.847656 77.015625 133.167969 78.058594 132.519531 C 78.941406 131.972656 79.832031 131.457031 80.738281 130.976562 L 79.628906 128.820312 C 78.652344 129.339844 77.699219 129.886719 76.765625 130.460938 C 75.683594 131.128906 74.625 131.847656 73.585938 132.609375 C 72.542969 133.371094 71.53125 134.171875 70.5625 135 C 69.601562 135.824219 68.660156 136.691406 67.75 137.601562 C 63.382812 141.96875 59.976562 146.972656 57.558594 152.320312 C 55.058594 157.847656 53.609375 163.75 53.226562 169.722656 C 52.851562 175.691406 53.539062 181.730469 55.3125 187.527344 M 115.179688 124.464844 C 112.464844 123.789062 109.683594 123.332031 106.867188 123.117188 L 106.714844 125.539062 C 109.390625 125.746094 112.027344 126.179688 114.601562 126.820312 C 117.375 127.515625 120.074219 128.457031 122.667969 129.632812 C 125.257812 130.804688 127.746094 132.214844 130.097656 133.839844 C 132.433594 135.460938 134.636719 137.289062 136.664062 139.316406 C 137.507812 140.15625 138.320312 141.039062 139.113281 141.957031 C 139.894531 142.863281 140.636719 143.792969 141.335938 144.75 C 142.046875 145.710938 142.71875 146.703125 143.355469 147.714844 C 143.882812 148.5625 144.394531 149.4375 144.875 150.332031 L 147.023438 149.203125 C 146.515625 148.261719 145.972656 147.332031 145.40625 146.421875 C 144.742188 145.359375 144.039062 144.320312 143.289062 143.308594 C 142.539062 142.292969 141.757812 141.304688 140.941406 140.351562 C 140.121094 139.398438 139.269531 138.472656 138.386719 137.59375 C 136.246094 135.457031 133.9375 133.535156 131.492188 131.84375 C 129.023438 130.132812 126.40625 128.65625 123.675781 127.421875 C 120.933594 126.1875 118.09375 125.195312 115.179688 124.464844 Z M 106.375 121.96875 C 109.460938 122.167969 112.496094 122.644531 115.449219 123.382812 C 118.429688 124.132812 121.332031 125.140625 124.121094 126.402344 C 126.90625 127.664062 129.585938 129.175781 132.117188 130.929688 C 134.628906 132.667969 136.996094 134.636719 139.167969 136.808594 C 140.070312 137.714844 140.945312 138.65625 141.78125 139.632812 C 142.621094 140.609375 143.421875 141.617188 144.1875 142.65625 C 144.949219 143.6875 145.667969 144.753906 146.351562 145.839844 C 147.03125 146.925781 147.671875 148.039062 148.273438 149.179688 L 148.53125 149.671875 L 144.40625 151.847656 L 144.144531 151.351562 C 143.609375 150.332031 143.023438 149.316406 142.398438 148.316406 C 141.777344 147.324219 141.117188 146.359375 140.425781 145.417969 C 139.738281 144.484375 139.011719 143.574219 138.257812 142.691406 C 137.507812 141.820312 136.707031 140.960938 135.867188 140.117188 C 133.878906 138.128906 131.730469 136.339844 129.457031 134.769531 C 127.164062 133.179688 124.738281 131.808594 122.207031 130.664062 C 119.671875 129.515625 117.035156 128.597656 114.324219 127.917969 C 111.636719 127.246094 108.878906 126.8125 106.085938 126.628906 L 105.527344 126.597656 L 105.816406 121.945312 Z M 103.066406 215.410156 C 95.046875 215.410156 87.363281 213.148438 80.777344 209.09375 C 74.199219 205.042969 68.71875 199.199219 65.113281 192.035156 L 67.222656 190.972656 C 70.636719 197.738281 75.804688 203.261719 82.019531 207.085938 C 88.230469 210.90625 95.480469 213.039062 103.066406 213.039062 Z M 61.4375 181.496094 C 61.144531 180.082031 60.925781 178.652344 60.78125 177.21875 C 60.632812 175.761719 60.554688 174.324219 60.554688 172.90625 C 60.554688 167.894531 61.445312 162.953125 63.144531 158.304688 C 64.847656 153.660156 67.355469 149.308594 70.59375 145.472656 L 72.394531 147.003906 C 69.339844 150.628906 66.96875 154.726562 65.363281 159.113281 C 63.761719 163.492188 62.921875 168.160156 62.921875 172.90625 C 62.921875 174.292969 62.992188 175.660156 63.128906 176.984375 C 63.265625 178.339844 63.472656 179.6875 63.746094 181.023438 Z M 75.027344 140.960938 C 76.945312 139.28125 79 137.777344 81.171875 136.472656 C 83.347656 135.167969 85.636719 134.054688 88.015625 133.152344 L 88.847656 135.363281 C 86.601562 136.214844 84.4375 137.265625 82.386719 138.496094 C 80.335938 139.726562 78.394531 141.148438 76.585938 142.734375 Z M 93.816406 131.417969 C 95.34375 131.078125 96.882812 130.820312 98.414062 130.652344 C 99.976562 130.480469 101.527344 130.398438 103.066406 130.398438 C 114.632812 130.398438 125.144531 135.027344 132.816406 142.550781 C 140.484375 150.070312 145.324219 160.480469 145.5625 172.046875 L 143.203125 172.09375 C 142.980469 161.171875 138.410156 151.335938 131.164062 144.234375 C 123.917969 137.132812 114 132.765625 103.070312 132.765625 C 101.585938 132.765625 100.117188 132.847656 98.675781 133.007812 C 97.203125 133.171875 95.753906 133.410156 94.332031 133.730469 Z M 143.460938 186.128906 C 141.042969 193.515625 136.703125 199.945312 131.058594 204.886719 C 125.417969 209.824219 118.464844 213.273438 110.824219 214.695312 L 110.398438 212.371094 C 117.613281 211.03125 124.175781 207.777344 129.503906 203.109375 C 134.835938 198.445312 138.933594 192.371094 141.214844 185.394531 Z M 142.425781 203.632812 C 142.714844 203.261719 143.007812 202.878906 143.300781 202.476562 L 141.324219 201.058594 C 141.046875 201.433594 140.769531 201.796875 140.484375 202.164062 C 140.074219 202.6875 139.671875 203.1875 139.273438 203.652344 C 138.453125 204.621094 137.578125 205.566406 136.652344 206.496094 C 132.40625 210.742188 127.535156 214.027344 122.324219 216.339844 C 116.945312 218.726562 111.199219 220.070312 105.40625 220.355469 C 99.605469 220.640625 93.75 219.867188 88.160156 218.027344 C 82.921875 216.300781 77.90625 213.625 73.375 210 L 71.835938 211.871094 C 76.605469 215.695312 81.882812 218.507812 87.398438 220.328125 C 93.277344 222.269531 99.429688 223.082031 105.523438 222.78125 C 111.617188 222.480469 117.660156 221.066406 123.320312 218.558594 C 128.792969 216.132812 133.90625 212.679688 138.375 208.222656 C 138.839844 207.757812 139.304688 207.273438 139.769531 206.769531 C 140.222656 206.277344 140.679688 205.761719 141.128906 205.230469 C 141.589844 204.679688 142.023438 204.152344 142.425781 203.632812 Z M 144.539062 202.679688 C 144.167969 203.203125 143.75 203.75 143.308594 204.324219 C 142.863281 204.886719 142.421875 205.429688 141.984375 205.949219 C 141.53125 206.488281 141.066406 207.015625 140.59375 207.527344 C 140.128906 208.027344 139.652344 208.527344 139.167969 209.011719 C 134.605469 213.574219 129.375 217.101562 123.777344 219.585938 C 117.992188 222.148438 111.8125 223.589844 105.578125 223.902344 C 99.347656 224.210938 93.058594 223.375 87.050781 221.398438 C 81.242188 219.480469 75.691406 216.480469 70.699219 212.386719 L 70.265625 212.035156 L 73.21875 208.441406 L 73.652344 208.792969 C 78.183594 212.507812 83.230469 215.230469 88.511719 216.972656 C 93.972656 218.777344 99.695312 219.527344 105.359375 219.25 C 111.015625 218.972656 116.621094 217.65625 121.882812 215.324219 C 126.964844 213.070312 131.71875 209.863281 135.867188 205.714844 C 136.78125 204.800781 137.640625 203.871094 138.425781 202.941406 C 138.839844 202.449219 139.238281 201.964844 139.609375 201.484375 C 139.992188 200.996094 140.375 200.488281 140.75 199.964844 L 141.074219 199.507812 L 144.867188 202.226562 Z M 51.78125 191.738281 C 48.230469 182.058594 47.554688 171.785156 49.527344 162.054688 C 51.503906 152.324219 56.125 143.125 63.171875 135.597656 L 63.859375 136.242188 C 56.9375 143.640625 52.394531 152.679688 50.457031 162.242188 C 48.515625 171.804688 49.179688 181.898438 52.675781 191.414062 Z M 74.257812 126.492188 C 75.839844 125.515625 77.464844 124.617188 79.125 123.804688 C 80.785156 122.992188 82.496094 122.265625 84.238281 121.628906 C 90.292969 119.402344 96.648438 118.289062 103.003906 118.28125 C 109.359375 118.273438 115.714844 119.378906 121.773438 121.585938 L 121.449219 122.472656 C 115.492188 120.300781 109.246094 119.21875 103.003906 119.226562 C 96.765625 119.234375 90.523438 120.332031 84.566406 122.515625 C 82.855469 123.144531 81.175781 123.859375 79.542969 124.660156 C 77.90625 125.457031 76.308594 126.339844 74.761719 127.296875 Z M 129.183594 124.933594 C 132.054688 126.496094 134.777344 128.3125 137.316406 130.355469 C 139.851562 132.394531 142.207031 134.664062 144.351562 137.136719 L 143.636719 137.757812 C 141.535156 135.332031 139.21875 133.097656 136.730469 131.09375 C 134.234375 129.082031 131.558594 127.300781 128.738281 125.761719 Z M 149.015625 143.371094 C 150.097656 145.054688 151.085938 146.792969 151.96875 148.574219 C 152.859375 150.359375 153.652344 152.203125 154.339844 154.078125 C 159.460938 168.035156 158.535156 182.765625 152.863281 195.351562 C 147.191406 207.9375 136.773438 218.390625 122.921875 223.792969 L 122.578125 222.914062 C 136.191406 217.601562 146.429688 207.332031 152.003906 194.960938 C 157.578125 182.59375 158.488281 168.117188 153.453125 154.402344 C 152.777344 152.554688 152 150.75 151.125 148.992188 C 150.25 147.234375 149.28125 145.523438 148.21875 143.875 Z M 66.429688 220.867188 C 57.378906 213.953125 50.65625 204.78125 46.722656 194.535156 C 42.789062 184.292969 41.648438 172.980469 43.742188 161.785156 L 46.066406 162.21875 C 44.050781 172.980469 45.148438 183.851562 48.925781 193.691406 C 52.703125 203.527344 59.160156 212.339844 67.863281 218.988281 Z M 48.691406 146.726562 C 49.585938 144.867188 50.566406 143.074219 51.628906 141.339844 C 52.703125 139.589844 53.863281 137.898438 55.105469 136.269531 C 59.429688 130.605469 64.691406 125.800781 70.613281 122.023438 C 76.53125 118.246094 83.109375 115.503906 90.070312 113.972656 L 90.582031 116.277344 C 83.890625 117.753906 77.570312 120.386719 71.882812 124.015625 C 66.199219 127.640625 61.148438 132.261719 56.988281 137.707031 C 55.792969 139.269531 54.675781 140.894531 53.648438 142.570312 C 52.613281 144.257812 51.667969 145.984375 50.820312 147.746094 Z M 98.785156 112.695312 C 102.71875 112.449219 106.230469 112.53125 109.273438 112.929688 C 112.378906 113.339844 115.007812 114.082031 117.125 115.15625 L 116.058594 117.265625 C 114.175781 116.3125 111.800781 115.644531 108.964844 115.273438 C 106.074219 114.894531 102.714844 114.816406 98.917969 115.054688 Z M 128.386719 118.117188 C 130.394531 119.050781 132.347656 120.085938 134.234375 121.21875 C 136.113281 122.351562 137.941406 123.597656 139.699219 124.941406 C 152.753906 134.914062 160.625 149.191406 162.804688 164.292969 C 164.980469 179.386719 161.464844 195.304688 151.757812 208.5625 L 149.851562 207.164062 C 159.179688 194.433594 162.554688 179.136719 160.464844 164.625 C 158.371094 150.121094 150.8125 136.402344 138.269531 126.820312 C 136.589844 125.539062 134.839844 124.347656 133.015625 123.246094 C 131.191406 122.148438 129.316406 121.152344 127.398438 120.265625 Z M 126.339844 103.179688 C 123.980469 102.390625 121.566406 101.714844 119.113281 101.164062 L 117.355469 109.289062 C 119.503906 109.773438 121.628906 110.367188 123.722656 111.066406 C 125.992188 111.828125 128.207031 112.707031 130.363281 113.699219 C 132.53125 114.699219 134.644531 115.820312 136.6875 117.050781 C 138.722656 118.277344 140.695312 119.617188 142.597656 121.074219 C 149.613281 126.433594 155.238281 132.933594 159.410156 140.117188 C 163.742188 147.582031 166.503906 155.78125 167.632812 164.195312 C 168.765625 172.621094 168.253906 181.265625 166.039062 189.609375 C 163.949219 197.472656 160.34375 205.074219 155.164062 211.976562 L 161.761719 217.011719 C 167.617188 209.226562 171.691406 200.644531 174.050781 191.761719 C 176.546875 182.359375 177.121094 172.617188 175.851562 163.128906 C 174.578125 153.628906 171.460938 144.375 166.578125 135.957031 C 161.875 127.855469 155.539062 120.519531 147.632812 114.480469 C 145.488281 112.847656 143.261719 111.328125 140.953125 109.941406 C 138.648438 108.550781 136.269531 107.289062 133.835938 106.164062 C 131.394531 105.027344 128.886719 104.03125 126.339844 103.179688 Z M 118.804688 99.949219 C 121.460938 100.523438 124.097656 101.25 126.691406 102.117188 C 129.285156 102.984375 131.832031 104 134.3125 105.140625 C 136.789062 106.285156 139.203125 107.5625 141.542969 108.976562 C 143.875 110.378906 146.136719 111.921875 148.320312 113.585938 C 156.34375 119.710938 162.78125 127.160156 167.554688 135.390625 C 172.507812 143.9375 175.671875 153.332031 176.964844 162.976562 C 178.253906 172.609375 177.675781 182.5 175.140625 192.042969 C 172.703125 201.230469 168.449219 210.101562 162.320312 218.128906 L 161.980469 218.570312 L 153.605469 212.179688 L 153.945312 211.738281 C 159.210938 204.84375 162.863281 197.214844 164.960938 189.324219 C 167.136719 181.121094 167.640625 172.621094 166.53125 164.339844 C 165.421875 156.070312 162.703125 148.011719 158.449219 140.675781 C 154.351562 133.617188 148.820312 127.222656 141.925781 121.957031 C 140.0625 120.535156 138.121094 119.214844 136.109375 118.003906 C 134.097656 116.792969 132.023438 115.6875 129.894531 114.710938 C 127.769531 113.726562 125.589844 112.863281 123.363281 112.121094 C 121.152344 111.382812 118.886719 110.757812 116.570312 110.261719 L 116.027344 110.140625 L 118.253906 99.828125 Z M 150.753906 228.722656 C 152.652344 227.105469 154.472656 225.382812 156.203125 223.570312 L 150.144531 217.875 C 148.621094 219.472656 147.019531 220.988281 145.34375 222.414062 C 143.527344 223.964844 141.628906 225.414062 139.65625 226.753906 C 137.675781 228.097656 135.632812 229.328125 133.53125 230.441406 C 131.421875 231.558594 129.246094 232.558594 127.03125 233.4375 C 118.828125 236.683594 110.355469 238.152344 102.046875 238.023438 C 93.421875 237.890625 84.96875 236.03125 77.179688 232.660156 C 69.375 229.285156 62.230469 224.394531 56.222656 218.195312 C 50.558594 212.347656 45.902344 205.339844 42.660156 197.347656 L 34.945312 200.40625 C 38.597656 209.441406 43.851562 217.355469 50.246094 223.957031 C 57.019531 230.941406 65.066406 236.457031 73.851562 240.257812 C 82.652344 244.0625 92.183594 246.164062 101.914062 246.316406 C 111.28125 246.464844 120.832031 244.808594 130.085938 241.148438 C 132.601562 240.148438 135.050781 239.019531 137.421875 237.765625 C 139.804688 236.503906 142.113281 235.117188 144.324219 233.613281 C 146.554688 232.113281 148.703125 230.476562 150.753906 228.722656 Z M 157.398438 223.929688 C 155.527344 225.917969 153.554688 227.800781 151.476562 229.570312 C 149.398438 231.339844 147.21875 233 144.953125 234.542969 C 142.695312 236.078125 140.347656 237.488281 137.941406 238.761719 C 135.527344 240.042969 133.039062 241.183594 130.496094 242.195312 C 121.109375 245.910156 111.414062 247.589844 101.898438 247.4375 C 92.019531 247.28125 82.335938 245.148438 73.410156 241.289062 C 64.484375 237.425781 56.3125 231.832031 49.441406 224.742188 C 42.824219 217.914062 37.410156 209.695312 33.695312 200.308594 L 33.488281 199.789062 L 43.285156 195.90625 L 43.492188 196.425781 C 46.6875 204.496094 51.335938 211.554688 57.019531 217.421875 C 62.921875 223.515625 69.949219 228.324219 77.613281 231.644531 C 85.269531 234.957031 93.574219 236.785156 102.050781 236.914062 C 110.214844 237.035156 118.542969 235.59375 126.617188 232.398438 C 128.804688 231.53125 130.941406 230.546875 133 229.453125 C 135.078125 228.355469 137.09375 227.144531 139.027344 225.828125 C 140.953125 224.519531 142.824219 223.09375 144.613281 221.566406 C 146.390625 220.046875 148.089844 218.425781 149.710938 216.703125 L 150.09375 216.296875 L 157.78125 223.519531 Z M 30.808594 186.238281 C 31.261719 188.6875 31.839844 191.121094 32.542969 193.527344 L 40.5 191.125 C 39.882812 189.007812 39.371094 186.863281 38.972656 184.695312 C 38.535156 182.339844 38.230469 179.96875 38.058594 177.605469 C 37.886719 175.234375 37.839844 172.847656 37.929688 170.449219 C 38.015625 168.0625 38.234375 165.683594 38.582031 163.324219 C 39.871094 154.59375 42.839844 146.523438 47.101562 139.390625 C 51.53125 131.984375 57.367188 125.59375 64.179688 120.53125 C 71.003906 115.464844 78.816406 111.71875 87.191406 109.621094 C 95.082031 107.636719 103.472656 107.109375 112.019531 108.296875 L 113.230469 100.085938 C 103.582031 98.734375 94.097656 99.328125 85.183594 101.566406 C 75.75 103.933594 66.949219 108.148438 59.265625 113.859375 C 51.570312 119.574219 44.980469 126.785156 39.980469 135.132812 C 35.167969 143.167969 31.824219 152.265625 30.371094 162.109375 C 29.976562 164.785156 29.730469 167.472656 29.632812 170.148438 C 29.535156 172.832031 29.582031 175.523438 29.777344 178.214844 C 29.976562 180.917969 30.320312 183.59375 30.808594 186.238281 Z M 31.632812 194.382812 C 30.847656 191.773438 30.207031 189.125 29.710938 186.4375 C 29.210938 183.742188 28.859375 181.023438 28.664062 178.300781 C 28.464844 175.585938 28.417969 172.855469 28.515625 170.117188 C 28.617188 167.386719 28.867188 164.660156 29.265625 161.960938 C 30.738281 151.972656 34.132812 142.734375 39.023438 134.570312 C 44.101562 126.09375 50.785156 118.777344 58.597656 112.972656 C 66.402344 107.175781 75.335938 102.898438 84.914062 100.496094 C 94.132812 98.179688 103.953125 97.601562 113.941406 99.074219 L 114.496094 99.15625 L 112.960938 109.578125 L 112.40625 109.496094 C 103.820312 108.230469 95.382812 108.726562 87.460938 110.71875 C 79.226562 112.785156 71.554688 116.464844 64.847656 121.445312 C 58.148438 126.421875 52.414062 132.703125 48.058594 139.976562 C 43.867188 146.980469 40.957031 154.917969 39.691406 163.5 C 39.347656 165.832031 39.132812 168.167969 39.046875 170.5 C 38.960938 172.839844 39.003906 175.191406 39.175781 177.535156 C 39.347656 179.871094 39.648438 182.199219 40.074219 184.5 C 40.496094 186.792969 41.050781 189.082031 41.734375 191.351562 L 41.894531 191.882812 L 31.792969 194.925781 Z M 62.660156 204.109375 C 58.800781 199.109375 56 193.597656 54.242188 187.855469 C 52.429688 181.925781 51.726562 175.753906 52.117188 169.652344 C 52.507812 163.542969 53.992188 157.511719 56.546875 151.859375 C 59.019531 146.382812 62.496094 141.273438 66.964844 136.808594 C 67.875 135.898438 68.835938 135.007812 69.839844 134.148438 C 70.839844 133.296875 71.871094 132.480469 72.929688 131.703125 C 73.976562 130.933594 75.066406 130.203125 76.1875 129.507812 C 77.308594 128.816406 78.449219 128.164062 79.613281 127.5625 L 80.109375 127.304688 L 82.242188 131.445312 L 81.75 131.703125 C 80.6875 132.25 79.648438 132.839844 78.644531 133.460938 C 77.640625 134.085938 76.652344 134.75 75.679688 135.460938 C 74.722656 136.160156 73.785156 136.898438 72.886719 137.675781 C 71.984375 138.449219 71.101562 139.265625 70.257812 140.109375 C 66.195312 144.171875 63.035156 148.816406 60.789062 153.785156 C 58.464844 158.914062 57.121094 164.398438 56.765625 169.941406 C 56.40625 175.492188 57.046875 181.109375 58.691406 186.492188 C 60.285156 191.710938 62.832031 196.71875 66.335938 201.261719 L 66.675781 201.703125 L 62.992188 204.550781 Z M 62.660156 204.109375 " fill-opacity="1" fill-rule="nonzero"/></g><g clip-path="url(#008d578420)"><path fill="#ffde59" d="M 249.402344 208.128906 L 241.082031 199.804688 L 237.675781 203.210938 L 242.59375 208.128906 Z M 185.1875 189.300781 L 232.71875 189.300781 L 241.082031 197.664062 L 247.261719 191.480469 L 306.679688 191.480469 L 306.679688 192.996094 L 247.890625 192.996094 L 242.152344 198.734375 L 244.453125 201.03125 L 318.039062 201.03125 C 318.359375 200.046875 319.285156 199.332031 320.378906 199.332031 C 321.734375 199.332031 322.832031 200.433594 322.832031 201.789062 C 322.832031 203.144531 321.734375 204.242188 320.378906 204.242188 C 319.285156 204.242188 318.359375 203.53125 318.039062 202.542969 L 245.964844 202.542969 L 251.546875 208.125 L 319.558594 208.125 L 319.558594 209.640625 L 253.058594 209.640625 L 256.1875 212.765625 L 340.964844 212.765625 C 341.285156 211.78125 342.210938 211.066406 343.300781 211.066406 C 344.65625 211.066406 345.753906 212.164062 345.753906 213.519531 C 345.753906 214.878906 344.65625 215.976562 343.300781 215.976562 C 342.210938 215.976562 341.285156 215.265625 340.964844 214.277344 L 255.554688 214.277344 L 250.914062 209.636719 L 241.964844 209.636719 L 236.601562 204.273438 L 231.894531 208.980469 L 176.074219 208.980469 C 175.753906 209.964844 174.828125 210.679688 173.738281 210.679688 C 172.382812 210.679688 171.285156 209.582031 171.285156 208.222656 C 171.285156 206.867188 172.382812 205.769531 173.738281 205.769531 C 174.828125 205.769531 175.753906 206.480469 176.074219 207.46875 L 231.273438 207.46875 L 235.539062 203.203125 L 231.492188 199.160156 L 177.230469 199.160156 L 177.230469 197.644531 L 232.117188 197.644531 L 236.605469 202.132812 L 240.011719 198.730469 L 232.089844 190.808594 L 185.1875 190.808594 C 184.867188 191.792969 183.941406 192.507812 182.851562 192.507812 C 181.492188 192.507812 180.394531 191.410156 180.394531 190.050781 C 180.394531 188.695312 181.492188 187.597656 182.851562 187.597656 C 183.945312 187.601562 184.871094 188.3125 185.1875 189.300781 Z M 185.1875 189.300781 " fill-opacity="1" fill-rule="nonzero"/></g><g clip-path="url(#de98c8f695)"><path fill="#ffffff" d="M 130.082031 168.71875 C 128.054688 166.6875 125.355469 165.574219 122.488281 165.574219 C 119.617188 165.574219 116.921875 166.691406 114.894531 168.71875 C 114.574219 169.035156 114.28125 169.363281 114.011719 169.710938 L 92.988281 159.375 C 92.992188 159.246094 92.996094 159.117188 92.996094 158.984375 C 92.996094 158.261719 92.914062 157.558594 92.765625 156.878906 L 108.066406 151.011719 C 108.832031 154.449219 111.902344 157.027344 115.570312 157.027344 C 119.808594 157.027344 123.253906 153.582031 123.253906 149.34375 C 123.253906 145.105469 119.808594 141.660156 115.570312 141.660156 C 111.332031 141.660156 107.886719 145.105469 107.886719 149.34375 C 107.886719 149.378906 107.886719 149.410156 107.886719 149.449219 L 92.320312 155.414062 C 90.890625 151.78125 87.347656 149.203125 83.214844 149.203125 C 77.820312 149.203125 73.429688 153.589844 73.429688 158.984375 C 73.429688 164.382812 77.816406 168.769531 83.214844 168.769531 C 87.925781 168.769531 91.867188 165.421875 92.792969 160.980469 L 113.15625 170.992188 C 112.238281 172.59375 111.75 174.410156 111.75 176.308594 C 111.75 177.722656 112.023438 179.097656 112.542969 180.367188 L 107.050781 182.792969 C 106.355469 180.664062 105.160156 178.710938 103.527344 177.078125 C 100.796875 174.347656 97.164062 172.847656 93.300781 172.847656 C 89.4375 172.847656 85.808594 174.351562 83.074219 177.078125 C 80.34375 179.8125 78.84375 183.441406 78.84375 187.304688 C 78.84375 191.167969 80.347656 194.800781 83.074219 197.53125 C 85.808594 200.265625 89.4375 201.765625 93.300781 201.765625 C 97.164062 201.765625 100.796875 200.261719 103.527344 197.53125 C 106.261719 194.800781 107.761719 191.167969 107.761719 187.304688 C 107.761719 186.28125 107.652344 185.269531 107.449219 184.289062 L 113.21875 181.734375 C 113.679688 182.511719 114.238281 183.242188 114.894531 183.898438 C 116.921875 185.925781 119.617188 187.039062 122.488281 187.039062 C 125.355469 187.039062 128.054688 185.921875 130.082031 183.898438 C 132.109375 181.867188 133.226562 179.171875 133.226562 176.304688 C 133.226562 173.433594 132.105469 170.746094 130.082031 168.71875 Z M 115.570312 143.191406 C 118.960938 143.191406 121.726562 145.949219 121.726562 149.347656 C 121.726562 152.742188 118.964844 155.503906 115.570312 155.503906 C 112.175781 155.503906 109.414062 152.742188 109.414062 149.347656 C 109.414062 145.949219 112.171875 143.191406 115.570312 143.191406 Z M 83.214844 167.238281 C 78.660156 167.238281 74.957031 163.539062 74.957031 158.984375 C 74.957031 154.433594 78.660156 150.730469 83.214844 150.730469 C 87.765625 150.730469 91.46875 154.433594 91.46875 158.984375 C 91.46875 163.539062 87.765625 167.238281 83.214844 167.238281 Z M 93.304688 200.242188 C 86.175781 200.242188 80.375 194.4375 80.375 187.308594 C 80.375 180.183594 86.179688 174.378906 93.304688 174.378906 C 100.433594 174.378906 106.238281 180.183594 106.238281 187.308594 C 106.238281 194.4375 100.4375 200.242188 93.304688 200.242188 Z M 122.488281 185.519531 C 117.410156 185.519531 113.277344 181.386719 113.277344 176.308594 C 113.277344 171.226562 117.410156 167.09375 122.488281 167.09375 C 127.566406 167.09375 131.699219 171.226562 131.699219 176.308594 C 131.699219 181.386719 127.566406 185.519531 122.488281 185.519531 Z M 122.488281 185.519531 " fill-opacity="1" fill-rule="nonzero"/></g><path fill="#ffffff" d="M 98.722656 181.699219 C 98.722656 182.027344 98.691406 182.355469 98.625 182.675781 C 98.5625 183 98.46875 183.3125 98.34375 183.617188 C 98.214844 183.921875 98.0625 184.210938 97.878906 184.484375 C 97.695312 184.757812 97.488281 185.011719 97.253906 185.242188 C 97.023438 185.476562 96.769531 185.683594 96.496094 185.867188 C 96.222656 186.046875 95.933594 186.203125 95.628906 186.328125 C 95.328125 186.453125 95.011719 186.550781 94.691406 186.613281 C 94.367188 186.679688 94.042969 186.710938 93.710938 186.710938 C 93.382812 186.710938 93.058594 186.679688 92.734375 186.613281 C 92.414062 186.550781 92.097656 186.453125 91.796875 186.328125 C 91.492188 186.203125 91.203125 186.046875 90.929688 185.867188 C 90.65625 185.683594 90.402344 185.476562 90.167969 185.242188 C 89.9375 185.011719 89.730469 184.757812 89.546875 184.484375 C 89.363281 184.210938 89.210938 183.921875 89.082031 183.617188 C 88.957031 183.3125 88.863281 183 88.796875 182.675781 C 88.734375 182.355469 88.703125 182.027344 88.703125 181.699219 C 88.703125 181.371094 88.734375 181.046875 88.796875 180.722656 C 88.863281 180.398438 88.957031 180.085938 89.082031 179.78125 C 89.210938 179.480469 89.363281 179.191406 89.546875 178.917969 C 89.730469 178.644531 89.9375 178.390625 90.167969 178.15625 C 90.402344 177.925781 90.65625 177.714844 90.929688 177.535156 C 91.203125 177.351562 91.492188 177.195312 91.796875 177.070312 C 92.097656 176.945312 92.414062 176.851562 92.734375 176.785156 C 93.058594 176.722656 93.382812 176.691406 93.710938 176.691406 C 94.042969 176.691406 94.367188 176.722656 94.691406 176.785156 C 95.011719 176.851562 95.328125 176.945312 95.628906 177.070312 C 95.933594 177.195312 96.222656 177.351562 96.496094 177.535156 C 96.769531 177.714844 97.023438 177.925781 97.253906 178.15625 C 97.488281 178.390625 97.695312 178.644531 97.878906 178.917969 C 98.0625 179.191406 98.214844 179.480469 98.34375 179.78125 C 98.46875 180.085938 98.5625 180.398438 98.625 180.722656 C 98.691406 181.046875 98.722656 181.371094 98.722656 181.699219 Z M 98.722656 181.699219 " fill-opacity="1" fill-rule="nonzero"/><path fill="#ffffff" d="M 125.972656 172.15625 C 125.972656 172.621094 125.882812 173.066406 125.707031 173.492188 C 125.53125 173.917969 125.277344 174.296875 124.953125 174.621094 C 124.625 174.949219 124.25 175.199219 123.820312 175.378906 C 123.394531 175.554688 122.949219 175.644531 122.488281 175.644531 C 122.027344 175.644531 121.582031 175.554688 121.152344 175.378906 C 120.726562 175.199219 120.351562 174.949219 120.023438 174.621094 C 119.695312 174.296875 119.445312 173.917969 119.269531 173.492188 C 119.089844 173.066406 119.003906 172.621094 119.003906 172.15625 C 119.003906 171.695312 119.089844 171.25 119.269531 170.824219 C 119.445312 170.398438 119.695312 170.019531 120.023438 169.695312 C 120.351562 169.367188 120.726562 169.113281 121.152344 168.9375 C 121.582031 168.761719 122.027344 168.671875 122.488281 168.671875 C 122.949219 168.671875 123.394531 168.761719 123.820312 168.9375 C 124.25 169.113281 124.625 169.367188 124.953125 169.695312 C 125.277344 170.019531 125.53125 170.398438 125.707031 170.824219 C 125.882812 171.25 125.972656 171.695312 125.972656 172.15625 Z M 125.972656 172.15625 " fill-opacity="1" fill-rule="nonzero"/><path fill="#ffffff" d="M 86.699219 155.5 C 86.699219 155.960938 86.609375 156.40625 86.433594 156.835938 C 86.257812 157.261719 86.003906 157.636719 85.675781 157.964844 C 85.351562 158.292969 84.972656 158.542969 84.546875 158.71875 C 84.121094 158.898438 83.675781 158.984375 83.214844 158.984375 C 82.75 158.984375 82.304688 158.898438 81.878906 158.71875 C 81.453125 158.542969 81.074219 158.292969 80.75 157.964844 C 80.421875 157.636719 80.167969 157.261719 79.992188 156.835938 C 79.816406 156.40625 79.726562 155.960938 79.726562 155.5 C 79.726562 155.039062 79.816406 154.59375 79.992188 154.167969 C 80.167969 153.738281 80.421875 153.363281 80.75 153.035156 C 81.074219 152.710938 81.453125 152.457031 81.878906 152.28125 C 82.304688 152.105469 82.75 152.015625 83.214844 152.015625 C 83.675781 152.015625 84.121094 152.105469 84.546875 152.28125 C 84.972656 152.457031 85.351562 152.710938 85.675781 153.035156 C 86.003906 153.363281 86.257812 153.738281 86.433594 154.167969 C 86.609375 154.59375 86.699219 155.039062 86.699219 155.5 Z M 86.699219 155.5 " fill-opacity="1" fill-rule="nonzero"/><path fill="#ffffff" d="M 117.761719 147.769531 C 117.761719 148.058594 117.707031 148.339844 117.597656 148.609375 C 117.484375 148.878906 117.328125 149.113281 117.121094 149.320312 C 116.914062 149.527344 116.675781 149.683594 116.410156 149.796875 C 116.140625 149.90625 115.859375 149.964844 115.570312 149.964844 C 115.277344 149.964844 115 149.90625 114.730469 149.796875 C 114.460938 149.683594 114.222656 149.527344 114.019531 149.320312 C 113.8125 149.113281 113.65625 148.878906 113.542969 148.609375 C 113.433594 148.339844 113.375 148.058594 113.375 147.769531 C 113.375 147.480469 113.433594 147.199219 113.542969 146.929688 C 113.65625 146.660156 113.8125 146.425781 114.019531 146.21875 C 114.222656 146.011719 114.460938 145.855469 114.730469 145.742188 C 115 145.632812 115.277344 145.578125 115.570312 145.578125 C 115.859375 145.578125 116.140625 145.632812 116.410156 145.742188 C 116.675781 145.855469 116.914062 146.011719 117.121094 146.21875 C 117.328125 146.425781 117.484375 146.660156 117.597656 146.929688 C 117.707031 147.199219 117.761719 147.480469 117.761719 147.769531 Z M 117.761719 147.769531 " fill-opacity="1" fill-rule="nonzero"/><path fill="#ffffff" d="M 97.414062 187.488281 C 96.34375 188.175781 95.074219 188.574219 93.707031 188.574219 C 92.296875 188.574219 90.984375 188.148438 89.894531 187.414062 C 87.109375 188.527344 84.949219 190.855469 84.066406 193.75 C 86.101562 196.664062 89.484375 198.574219 93.300781 198.574219 C 97.347656 198.574219 100.902344 196.429688 102.882812 193.222656 C 101.9375 190.628906 99.945312 188.550781 97.414062 187.488281 Z M 97.414062 187.488281 " fill-opacity="1" fill-rule="nonzero"/><path fill="#ffffff" d="M 125.726562 176.402344 C 124.824219 177.09375 123.703125 177.503906 122.484375 177.503906 C 121.277344 177.503906 120.15625 177.101562 119.261719 176.417969 C 117.65625 177.269531 116.417969 178.722656 115.863281 180.480469 C 117.25 182.675781 119.699219 184.136719 122.484375 184.136719 C 125.289062 184.136719 127.75 182.648438 129.136719 180.429688 C 128.574219 178.679688 127.332031 177.242188 125.726562 176.402344 Z M 125.726562 176.402344 " fill-opacity="1" fill-rule="nonzero"/><path fill="#ffffff" d="M 85.421875 159.40625 C 84.769531 159.773438 84.015625 159.988281 83.207031 159.988281 C 82.410156 159.988281 81.664062 159.777344 81.015625 159.414062 C 79.304688 160.058594 77.957031 161.4375 77.339844 163.164062 C 78.648438 164.996094 80.789062 166.191406 83.207031 166.191406 C 85.644531 166.191406 87.804688 164.972656 89.109375 163.117188 C 88.484375 161.40625 87.132812 160.039062 85.421875 159.40625 Z M 85.421875 159.40625 " fill-opacity="1" fill-rule="nonzero"/><path fill="#ffffff" d="M 115.570312 154.738281 C 117.289062 154.738281 118.824219 153.929688 119.8125 152.671875 C 119.359375 151.5625 118.460938 150.683594 117.332031 150.261719 C 116.832031 150.613281 116.226562 150.824219 115.566406 150.824219 C 114.996094 150.824219 114.464844 150.667969 114.003906 150.394531 C 112.894531 150.917969 112.039062 151.898438 111.699219 153.097656 C 112.679688 154.109375 114.050781 154.738281 115.570312 154.738281 Z M 115.570312 154.738281 " fill-opacity="1" fill-rule="nonzero"/><g fill="#ffffff" fill-opacity="1"><g transform="translate(180.577581, 182.321265)"><g><path d="M 1.640625 0 L 1.640625 -0.484375 C 2.210938 -0.671875 2.582031 -1.054688 2.75 -1.640625 C 2.925781 -2.234375 3.015625 -3.15625 3.015625 -4.40625 L 3.015625 -19.90625 C 3.015625 -21.15625 2.925781 -22.078125 2.75 -22.671875 C 2.582031 -23.265625 2.210938 -23.65625 1.640625 -23.84375 L 1.640625 -24.328125 L 8.09375 -24.328125 L 8.09375 -23.84375 C 7.519531 -23.65625 7.144531 -23.265625 6.96875 -22.671875 C 6.789062 -22.078125 6.703125 -21.15625 6.703125 -19.90625 L 6.703125 -2.359375 C 6.703125 -1.203125 7.28125 -0.625 8.4375 -0.625 L 11.296875 -0.625 C 13.054688 -0.625 14.4375 -0.890625 15.4375 -1.421875 C 16.445312 -1.953125 17.300781 -2.960938 18 -4.453125 L 18.453125 -4.375 L 18.171875 0 Z M 1.640625 0 "/></g></g></g><g fill="#ffffff" fill-opacity="1"><g transform="translate(199.657584, 182.321265)"><g><path d="M 9.3125 0.34375 C 8.34375 0.34375 7.375 0.171875 6.40625 -0.171875 C 5.445312 -0.515625 4.5625 -1.035156 3.75 -1.734375 C 2.9375 -2.429688 2.285156 -3.300781 1.796875 -4.34375 C 1.316406 -5.382812 1.078125 -6.613281 1.078125 -8.03125 C 1.078125 -9.507812 1.335938 -10.835938 1.859375 -12.015625 C 2.378906 -13.203125 3.078125 -14.210938 3.953125 -15.046875 C 4.835938 -15.878906 5.816406 -16.515625 6.890625 -16.953125 C 7.972656 -17.398438 9.082031 -17.625 10.21875 -17.625 C 11.789062 -17.625 13.109375 -17.304688 14.171875 -16.671875 C 15.242188 -16.046875 16.050781 -15.257812 16.59375 -14.3125 C 17.132812 -13.363281 17.40625 -12.378906 17.40625 -11.359375 L 4.234375 -11.359375 C 4.210938 -11.171875 4.195312 -10.984375 4.1875 -10.796875 C 4.175781 -10.617188 4.171875 -10.4375 4.171875 -10.25 C 4.171875 -8.75 4.460938 -7.40625 5.046875 -6.21875 C 5.640625 -5.039062 6.472656 -4.117188 7.546875 -3.453125 C 8.628906 -2.796875 9.898438 -2.46875 11.359375 -2.46875 C 12.660156 -2.46875 13.804688 -2.722656 14.796875 -3.234375 C 15.796875 -3.742188 16.65625 -4.40625 17.375 -5.21875 L 17.6875 -4.859375 C 17.15625 -4.054688 16.492188 -3.253906 15.703125 -2.453125 C 14.921875 -1.648438 13.992188 -0.984375 12.921875 -0.453125 C 11.859375 0.078125 10.65625 0.34375 9.3125 0.34375 Z M 4.28125 -11.84375 L 13.90625 -11.84375 C 13.757812 -12.800781 13.460938 -13.664062 13.015625 -14.4375 C 12.566406 -15.21875 12.007812 -15.835938 11.34375 -16.296875 C 10.6875 -16.765625 9.953125 -17 9.140625 -17 C 8.171875 -17.019531 7.347656 -16.785156 6.671875 -16.296875 C 6.003906 -15.804688 5.472656 -15.164062 5.078125 -14.375 C 4.679688 -13.59375 4.414062 -12.75 4.28125 -11.84375 Z M 4.28125 -11.84375 "/></g></g></g><g fill="#ffffff" fill-opacity="1"><g transform="translate(218.216269, 182.321265)"><g><path d="M 10.390625 0 L 10.390625 -0.484375 C 10.972656 -0.671875 11.117188 -0.988281 10.828125 -1.4375 C 10.535156 -1.894531 10.039062 -2.644531 9.34375 -3.6875 L 6.671875 -7.75 L 3.609375 -3.546875 C 3.128906 -2.867188 2.765625 -2.328125 2.515625 -1.921875 C 2.273438 -1.523438 2.253906 -1.21875 2.453125 -1 C 2.648438 -0.789062 3.140625 -0.617188 3.921875 -0.484375 L 3.921875 0 L -0.65625 0 L -0.65625 -0.484375 C -0.144531 -0.671875 0.394531 -0.976562 0.96875 -1.40625 C 1.550781 -1.832031 2.210938 -2.546875 2.953125 -3.546875 L 6.359375 -8.203125 L 2.75 -13.6875 C 2.050781 -14.726562 1.441406 -15.476562 0.921875 -15.9375 C 0.398438 -16.40625 -0.0546875 -16.722656 -0.453125 -16.890625 L -0.453125 -17.375 L 5.625 -17.375 L 5.625 -16.890625 C 5.050781 -16.703125 4.90625 -16.378906 5.1875 -15.921875 C 5.476562 -15.472656 5.972656 -14.726562 6.671875 -13.6875 L 8.796875 -10.453125 L 11.125 -13.765625 C 11.601562 -14.453125 11.953125 -15 12.171875 -15.40625 C 12.398438 -15.8125 12.421875 -16.128906 12.234375 -16.359375 C 12.046875 -16.597656 11.546875 -16.773438 10.734375 -16.890625 L 10.734375 -17.375 L 15.296875 -17.375 L 15.296875 -16.890625 C 14.785156 -16.722656 14.242188 -16.414062 13.671875 -15.96875 C 13.109375 -15.519531 12.46875 -14.785156 11.75 -13.765625 L 9.109375 -9.96875 L 13.234375 -3.6875 C 13.929688 -2.644531 14.546875 -1.894531 15.078125 -1.4375 C 15.609375 -0.988281 16.0625 -0.671875 16.4375 -0.484375 L 16.4375 0 Z M 10.390625 0 "/></g></g></g><g fill="#ffffff" fill-opacity="1"><g transform="translate(234.237905, 182.321265)"><g/></g></g><g fill="#ffffff" fill-opacity="1"><g transform="translate(241.188723, 182.321265)"><g><path d="M 1.640625 0 L 1.640625 -0.484375 C 2.210938 -0.671875 2.582031 -1.054688 2.75 -1.640625 C 2.925781 -2.234375 3.015625 -3.15625 3.015625 -4.40625 L 3.015625 -19.90625 C 3.015625 -21.15625 2.925781 -22.078125 2.75 -22.671875 C 2.582031 -23.265625 2.210938 -23.65625 1.640625 -23.84375 L 1.640625 -24.328125 L 8.09375 -24.328125 L 8.09375 -23.84375 C 7.519531 -23.65625 7.144531 -23.265625 6.96875 -22.671875 C 6.789062 -22.078125 6.703125 -21.15625 6.703125 -19.90625 L 6.703125 -2.359375 C 6.703125 -1.203125 7.28125 -0.625 8.4375 -0.625 L 11.296875 -0.625 C 13.054688 -0.625 14.4375 -0.890625 15.4375 -1.421875 C 16.445312 -1.953125 17.300781 -2.960938 18 -4.453125 L 18.453125 -4.375 L 18.171875 0 Z M 1.640625 0 "/></g></g></g><g fill="#ffffff" fill-opacity="1"><g transform="translate(260.268726, 182.321265)"><g><path d="M 0.96875 0 L 0.96875 -0.484375 C 1.550781 -0.671875 1.925781 -1.054688 2.09375 -1.640625 C 2.269531 -2.234375 2.359375 -3.15625 2.359375 -4.40625 L 2.359375 -12.40625 C 2.359375 -13.425781 2.238281 -14.097656 2 -14.421875 C 1.757812 -14.742188 1.414062 -15 0.96875 -15.1875 L 0.96875 -15.671875 L 5.5625 -17.6875 L 5.90625 -17.40625 L 5.90625 -4.40625 C 5.90625 -3.15625 5.988281 -2.234375 6.15625 -1.640625 C 6.332031 -1.054688 6.710938 -0.671875 7.296875 -0.484375 L 7.296875 0 Z M 1.5625 -21.234375 C 1.5625 -21.898438 1.789062 -22.460938 2.25 -22.921875 C 2.71875 -23.390625 3.273438 -23.625 3.921875 -23.625 C 4.617188 -23.625 5.1875 -23.390625 5.625 -22.921875 C 6.070312 -22.460938 6.296875 -21.898438 6.296875 -21.234375 C 6.296875 -20.585938 6.066406 -20.03125 5.609375 -19.5625 C 5.160156 -19.101562 4.597656 -18.875 3.921875 -18.875 C 3.273438 -18.875 2.71875 -19.101562 2.25 -19.5625 C 1.789062 -20.03125 1.5625 -20.585938 1.5625 -21.234375 Z M 1.5625 -21.234375 "/></g></g></g><g fill="#ffffff" fill-opacity="1"><g transform="translate(268.609711, 182.321265)"><g><path d="M 0.96875 0 L 0.96875 -0.484375 C 1.550781 -0.671875 1.925781 -1.054688 2.09375 -1.640625 C 2.269531 -2.234375 2.359375 -3.15625 2.359375 -4.40625 L 2.359375 -12.40625 C 2.359375 -13.425781 2.238281 -14.097656 2 -14.421875 C 1.757812 -14.742188 1.414062 -15 0.96875 -15.1875 L 0.96875 -15.671875 L 5.5625 -17.6875 L 5.90625 -17.40625 L 5.90625 -14.484375 C 6.851562 -15.273438 7.941406 -15.992188 9.171875 -16.640625 C 10.398438 -17.296875 11.6875 -17.625 13.03125 -17.625 C 14.625 -17.625 15.910156 -17.175781 16.890625 -16.28125 C 17.878906 -15.382812 18.375 -13.921875 18.375 -11.890625 L 18.375 -4.40625 C 18.375 -3.15625 18.460938 -2.234375 18.640625 -1.640625 C 18.816406 -1.054688 19.191406 -0.671875 19.765625 -0.484375 L 19.765625 0 L 13.453125 0 L 13.453125 -0.484375 C 14.023438 -0.671875 14.398438 -1.054688 14.578125 -1.640625 C 14.753906 -2.234375 14.84375 -3.15625 14.84375 -4.40625 L 14.84375 -11.265625 C 14.84375 -12.835938 14.507812 -14.054688 13.84375 -14.921875 C 13.1875 -15.796875 12.207031 -16.234375 10.90625 -16.234375 C 10.09375 -16.234375 9.289062 -16.035156 8.5 -15.640625 C 7.71875 -15.242188 6.851562 -14.664062 5.90625 -13.90625 L 5.90625 -4.40625 C 5.90625 -3.15625 5.988281 -2.234375 6.15625 -1.640625 C 6.332031 -1.054688 6.710938 -0.671875 7.296875 -0.484375 L 7.296875 0 Z M 0.96875 0 "/></g></g></g><g fill="#ffffff" fill-opacity="1"><g transform="translate(289.079872, 182.321265)"><g><path d="M 1.046875 0 L 1.046875 -0.484375 C 1.617188 -0.671875 1.992188 -1.054688 2.171875 -1.640625 C 2.347656 -2.234375 2.4375 -3.15625 2.4375 -4.40625 L 2.4375 -22.828125 C 2.4375 -23.847656 2.3125 -24.519531 2.0625 -24.84375 C 1.820312 -25.164062 1.484375 -25.421875 1.046875 -25.609375 L 1.046875 -26.09375 L 5.625 -28.109375 L 5.984375 -27.828125 L 5.984375 -7.859375 L 11.4375 -13.28125 C 12.539062 -14.382812 13.148438 -15.257812 13.265625 -15.90625 C 13.390625 -16.5625 13.273438 -16.945312 12.921875 -17.0625 L 12.921875 -17.375 L 17.34375 -17.375 L 17.34375 -16.890625 C 16.78125 -16.722656 16.148438 -16.457031 15.453125 -16.09375 C 14.765625 -15.738281 13.976562 -15.125 13.09375 -14.25 L 10.875 -12.03125 L 15.015625 -4.546875 C 15.679688 -3.347656 16.320312 -2.367188 16.9375 -1.609375 C 17.550781 -0.859375 18.273438 -0.484375 19.109375 -0.484375 L 19.109375 0 L 16.328125 0 C 15.472656 0 14.640625 -0.304688 13.828125 -0.921875 C 13.015625 -1.535156 12.191406 -2.617188 11.359375 -4.171875 L 8.484375 -9.65625 L 5.984375 -7.15625 L 5.984375 -4.40625 C 5.984375 -3.15625 6.066406 -2.234375 6.234375 -1.640625 C 6.410156 -1.054688 6.785156 -0.671875 7.359375 -0.484375 L 7.359375 0 Z M 1.046875 0 "/></g></g></g><g fill="#ffffff" fill-opacity="1"><g transform="translate(165.313177, 227.498716)"><g><path d="M 2.40625 -3.25 L 5.609375 -3.25 L 4.015625 -7.3125 Z M 7.890625 0 L 6.90625 0 L 5.953125 -2.40625 L 2.0625 -2.40625 L 1.125 0 L 0.125 0 L 4.015625 -9.453125 Z M 7.890625 0 "/></g></g></g><g fill="#ffffff" fill-opacity="1"><g transform="translate(173.33172, 227.498716)"><g/></g></g><g fill="#ffffff" fill-opacity="1"><g transform="translate(176.84065, 227.498716)"><g><path d="M 1.8125 -0.8125 C 2.03125 -0.65625 2.320312 -0.578125 2.6875 -0.578125 C 3.519531 -0.578125 3.9375 -0.890625 3.9375 -1.515625 C 3.9375 -1.878906 3.640625 -2.160156 3.046875 -2.359375 C 2.796875 -2.441406 2.523438 -2.519531 2.234375 -2.59375 C 1.941406 -2.65625 1.671875 -2.742188 1.421875 -2.859375 C 1.117188 -2.992188 0.894531 -3.164062 0.75 -3.375 C 0.601562 -3.582031 0.53125 -3.832031 0.53125 -4.125 C 0.53125 -4.695312 0.726562 -5.125 1.125 -5.40625 C 1.53125 -5.695312 2.007812 -5.84375 2.5625 -5.84375 C 3.113281 -5.84375 3.570312 -5.734375 3.9375 -5.515625 C 4.300781 -5.285156 4.550781 -4.878906 4.6875 -4.296875 L 3.703125 -4.296875 C 3.597656 -4.617188 3.445312 -4.832031 3.25 -4.9375 C 3.0625 -5.039062 2.820312 -5.09375 2.53125 -5.09375 C 2.25 -5.09375 2.007812 -5.03125 1.8125 -4.90625 C 1.601562 -4.78125 1.5 -4.59375 1.5 -4.34375 C 1.5 -4.082031 1.582031 -3.890625 1.75 -3.765625 C 1.914062 -3.648438 2.125 -3.550781 2.375 -3.46875 C 2.625 -3.394531 2.898438 -3.328125 3.203125 -3.265625 C 3.484375 -3.191406 3.753906 -3.097656 4.015625 -2.984375 C 4.609375 -2.703125 4.90625 -2.253906 4.90625 -1.640625 C 4.90625 -1.023438 4.679688 -0.566406 4.234375 -0.265625 C 4.015625 -0.117188 3.769531 -0.0078125 3.5 0.0625 C 3.238281 0.132812 2.953125 0.171875 2.640625 0.171875 C 1.316406 0.171875 0.550781 -0.414062 0.34375 -1.59375 L 1.3125 -1.59375 C 1.40625 -1.226562 1.570312 -0.96875 1.8125 -0.8125 Z M 1.8125 -0.8125 "/></g></g></g><g fill="#ffffff" fill-opacity="1"><g transform="translate(182.065049, 227.498716)"><g><path d="M 4.921875 -0.96875 C 4.503906 -0.25 3.867188 0.109375 3.015625 0.109375 C 2.367188 0.109375 1.867188 -0.0976562 1.515625 -0.515625 C 1.148438 -0.941406 0.96875 -1.484375 0.96875 -2.140625 L 0.96875 -5.71875 L 1.890625 -5.71875 L 1.890625 -2.140625 C 1.890625 -1.773438 1.972656 -1.460938 2.140625 -1.203125 C 2.304688 -0.929688 2.585938 -0.796875 2.984375 -0.796875 C 3.691406 -0.796875 4.191406 -1.019531 4.484375 -1.46875 C 4.773438 -1.90625 4.921875 -2.523438 4.921875 -3.328125 L 4.921875 -5.71875 L 5.84375 -5.71875 L 5.84375 0 L 4.921875 0 Z M 4.921875 -0.96875 "/></g></g></g><g fill="#ffffff" fill-opacity="1"><g transform="translate(188.680019, 227.498716)"><g><path d="M 5.53125 -2.859375 C 5.53125 -3.410156 5.335938 -3.894531 4.953125 -4.3125 C 4.566406 -4.726562 4.085938 -4.9375 3.515625 -4.9375 C 2.941406 -4.9375 2.460938 -4.726562 2.078125 -4.3125 C 1.691406 -3.894531 1.5 -3.410156 1.5 -2.859375 C 1.5 -2.304688 1.691406 -1.820312 2.078125 -1.40625 C 2.460938 -0.988281 2.941406 -0.78125 3.515625 -0.78125 C 4.085938 -0.78125 4.566406 -0.988281 4.953125 -1.40625 C 5.335938 -1.820312 5.53125 -2.304688 5.53125 -2.859375 Z M 6.4375 0 L 5.53125 0 L 5.53125 -0.96875 C 5.476562 -0.90625 5.425781 -0.84375 5.375 -0.78125 C 4.820312 -0.175781 4.148438 0.125 3.359375 0.125 C 2.578125 0.125 1.914062 -0.175781 1.375 -0.78125 C 0.84375 -1.363281 0.578125 -2.054688 0.578125 -2.859375 C 0.578125 -3.660156 0.84375 -4.351562 1.375 -4.9375 C 1.914062 -5.539062 2.578125 -5.84375 3.359375 -5.84375 C 4.148438 -5.84375 4.820312 -5.539062 5.375 -4.9375 C 5.425781 -4.875 5.476562 -4.8125 5.53125 -4.75 L 5.53125 -5.71875 L 6.4375 -5.71875 Z M 6.4375 0 "/></g></g></g><g fill="#ffffff" fill-opacity="1"><g transform="translate(196.087745, 227.498716)"><g/></g></g><g fill="#ffffff" fill-opacity="1"><g transform="translate(199.596675, 227.498716)"><g><path d="M 5.53125 -2.859375 C 5.53125 -3.410156 5.335938 -3.894531 4.953125 -4.3125 C 4.566406 -4.726562 4.085938 -4.9375 3.515625 -4.9375 C 2.941406 -4.9375 2.460938 -4.726562 2.078125 -4.3125 C 1.691406 -3.894531 1.5 -3.410156 1.5 -2.859375 C 1.5 -2.304688 1.691406 -1.820312 2.078125 -1.40625 C 2.460938 -0.988281 2.941406 -0.78125 3.515625 -0.78125 C 4.085938 -0.78125 4.566406 -0.988281 4.953125 -1.40625 C 5.335938 -1.820312 5.53125 -2.304688 5.53125 -2.859375 Z M 6.4375 0 L 5.53125 0 L 5.53125 -0.96875 C 5.476562 -0.90625 5.425781 -0.84375 5.375 -0.78125 C 4.820312 -0.175781 4.148438 0.125 3.359375 0.125 C 2.578125 0.125 1.914062 -0.175781 1.375 -0.78125 C 0.84375 -1.363281 0.578125 -2.054688 0.578125 -2.859375 C 0.578125 -3.660156 0.84375 -4.351562 1.375 -4.9375 C 1.914062 -5.539062 2.578125 -5.84375 3.359375 -5.84375 C 4.148438 -5.84375 4.820312 -5.539062 5.375 -4.9375 C 5.425781 -4.875 5.476562 -4.8125 5.53125 -4.75 L 5.53125 -9.75 L 6.4375 -9.75 Z M 6.4375 0 "/></g></g></g><g fill="#ffffff" fill-opacity="1"><g transform="translate(207.004401, 227.498716)"><g><path d="M 1.890625 -7.703125 C 2.003906 -7.585938 2.0625 -7.453125 2.0625 -7.296875 C 2.0625 -7.128906 2.003906 -6.988281 1.890625 -6.875 C 1.785156 -6.757812 1.65625 -6.703125 1.5 -6.703125 C 1.332031 -6.703125 1.191406 -6.757812 1.078125 -6.875 C 0.960938 -6.988281 0.90625 -7.128906 0.90625 -7.296875 C 0.90625 -7.453125 0.960938 -7.585938 1.078125 -7.703125 C 1.191406 -7.804688 1.332031 -7.859375 1.5 -7.859375 C 1.65625 -7.859375 1.785156 -7.804688 1.890625 -7.703125 Z M 1.953125 0 L 1.046875 0 L 1.046875 -5.71875 L 1.953125 -5.71875 Z M 1.953125 0 "/></g></g></g><g fill="#ffffff" fill-opacity="1"><g transform="translate(209.980494, 227.498716)"><g><path d="M 1.890625 0 L 0.96875 0 L 0.96875 -9.75 L 1.890625 -9.75 Z M 1.890625 0 "/></g></g></g><g fill="#ffffff" fill-opacity="1"><g transform="translate(212.839617, 227.498716)"><g><path d="M 1.890625 -7.703125 C 2.003906 -7.585938 2.0625 -7.453125 2.0625 -7.296875 C 2.0625 -7.128906 2.003906 -6.988281 1.890625 -6.875 C 1.785156 -6.757812 1.65625 -6.703125 1.5 -6.703125 C 1.332031 -6.703125 1.191406 -6.757812 1.078125 -6.875 C 0.960938 -6.988281 0.90625 -7.128906 0.90625 -7.296875 C 0.90625 -7.453125 0.960938 -7.585938 1.078125 -7.703125 C 1.191406 -7.804688 1.332031 -7.859375 1.5 -7.859375 C 1.65625 -7.859375 1.785156 -7.804688 1.890625 -7.703125 Z M 1.953125 0 L 1.046875 0 L 1.046875 -5.71875 L 1.953125 -5.71875 Z M 1.953125 0 "/></g></g></g><g fill="#ffffff" fill-opacity="1"><g transform="translate(215.81571, 227.498716)"><g><path d="M 5.609375 -2.859375 C 5.609375 -3.410156 5.414062 -3.894531 5.03125 -4.3125 C 4.644531 -4.726562 4.164062 -4.9375 3.59375 -4.9375 C 3.03125 -4.9375 2.550781 -4.726562 2.15625 -4.3125 C 1.769531 -3.90625 1.578125 -3.421875 1.578125 -2.859375 C 1.578125 -2.296875 1.769531 -1.8125 2.15625 -1.40625 C 2.550781 -0.988281 3.03125 -0.78125 3.59375 -0.78125 C 4.164062 -0.78125 4.644531 -0.988281 5.03125 -1.40625 C 5.414062 -1.820312 5.609375 -2.304688 5.609375 -2.859375 Z M 1.546875 0.78125 C 1.628906 1.132812 1.816406 1.453125 2.109375 1.734375 C 2.503906 2.140625 2.984375 2.34375 3.546875 2.34375 C 4.109375 2.34375 4.59375 2.140625 5 1.734375 C 5.40625 1.328125 5.609375 0.84375 5.609375 0.28125 L 5.609375 -0.96875 C 5.554688 -0.90625 5.503906 -0.84375 5.453125 -0.78125 C 4.910156 -0.175781 4.242188 0.125 3.453125 0.125 C 2.660156 0.125 1.992188 -0.175781 1.453125 -0.78125 C 0.921875 -1.363281 0.65625 -2.054688 0.65625 -2.859375 C 0.65625 -3.660156 0.921875 -4.351562 1.453125 -4.9375 C 1.992188 -5.539062 2.660156 -5.84375 3.453125 -5.84375 C 4.222656 -5.84375 4.890625 -5.539062 5.453125 -4.9375 C 5.503906 -4.875 5.554688 -4.816406 5.609375 -4.765625 L 5.609375 -5.71875 L 6.515625 -5.71875 L 6.515625 0.28125 C 6.515625 1.101562 6.222656 1.800781 5.640625 2.375 C 5.054688 2.957031 4.359375 3.25 3.546875 3.25 C 2.734375 3.25 2.035156 2.957031 1.453125 2.375 C 0.992188 1.914062 0.71875 1.382812 0.625 0.78125 Z M 1.546875 0.78125 "/></g></g></g><g fill="#ffffff" fill-opacity="1"><g transform="translate(223.301416, 227.498716)"><g><path d="M 6.5625 -2.984375 L 6.5625 -2.515625 L 1.53125 -2.515625 C 1.613281 -2.015625 1.851562 -1.609375 2.25 -1.296875 C 2.644531 -0.972656 3.085938 -0.8125 3.578125 -0.8125 C 3.898438 -0.8125 4.21875 -0.890625 4.53125 -1.046875 C 4.820312 -1.203125 5.066406 -1.410156 5.265625 -1.671875 L 6.3125 -1.671875 C 6.0625 -1.128906 5.695312 -0.703125 5.21875 -0.390625 C 4.71875 -0.0664062 4.21875 0.09375 3.71875 0.09375 C 3.207031 0.09375 2.773438 0.015625 2.421875 -0.140625 C 2.054688 -0.296875 1.738281 -0.507812 1.46875 -0.78125 C 0.875 -1.351562 0.578125 -2.054688 0.578125 -2.890625 C 0.578125 -3.710938 0.875 -4.414062 1.46875 -5 C 2.050781 -5.582031 2.753906 -5.875 3.578125 -5.875 C 4.367188 -5.875 5.066406 -5.59375 5.671875 -5.03125 C 6.265625 -4.457031 6.5625 -3.773438 6.5625 -2.984375 Z M 5.609375 -3.28125 C 5.503906 -3.769531 5.257812 -4.175781 4.875 -4.5 C 4.488281 -4.8125 4.054688 -4.96875 3.578125 -4.96875 C 2.828125 -4.96875 2.238281 -4.632812 1.8125 -3.96875 C 1.6875 -3.757812 1.597656 -3.53125 1.546875 -3.28125 Z M 3.578125 -8.09375 L 2.640625 -6.71875 L 1.71875 -6.71875 L 3.140625 -8.578125 L 4 -8.578125 L 5.4375 -6.71875 L 4.515625 -6.71875 Z M 3.578125 -8.09375 "/></g></g></g><g fill="#ffffff" fill-opacity="1"><g transform="translate(230.449224, 227.498716)"><g><path d="M 4.921875 0 L 4.921875 -3.578125 C 4.921875 -3.953125 4.84375 -4.269531 4.6875 -4.53125 C 4.507812 -4.789062 4.222656 -4.921875 3.828125 -4.921875 C 3.441406 -4.921875 3.128906 -4.847656 2.890625 -4.703125 C 2.640625 -4.554688 2.441406 -4.367188 2.296875 -4.140625 C 2.023438 -3.703125 1.890625 -3.117188 1.890625 -2.390625 L 1.890625 0 L 0.96875 0 L 0.96875 -5.71875 L 1.890625 -5.71875 L 1.890625 -4.734375 C 2.078125 -5.054688 2.316406 -5.320312 2.609375 -5.53125 C 2.921875 -5.738281 3.28125 -5.84375 3.6875 -5.84375 C 4.09375 -5.84375 4.425781 -5.785156 4.6875 -5.671875 C 4.9375 -5.546875 5.144531 -5.382812 5.3125 -5.1875 C 5.664062 -4.78125 5.84375 -4.242188 5.84375 -3.578125 L 5.84375 0 Z M 4.921875 0 "/></g></g></g><g fill="#ffffff" fill-opacity="1"><g transform="translate(237.064194, 227.498716)"><g><path d="M 6.3125 -3.671875 L 5.328125 -3.671875 C 5.171875 -4.035156 4.929688 -4.328125 4.609375 -4.546875 C 4.273438 -4.773438 3.9375 -4.890625 3.59375 -4.890625 C 3.257812 -4.890625 2.972656 -4.835938 2.734375 -4.734375 C 2.484375 -4.617188 2.273438 -4.472656 2.109375 -4.296875 C 1.710938 -3.878906 1.515625 -3.398438 1.515625 -2.859375 C 1.515625 -2.304688 1.710938 -1.832031 2.109375 -1.4375 C 2.484375 -1.019531 2.953125 -0.8125 3.515625 -0.8125 C 3.878906 -0.8125 4.21875 -0.910156 4.53125 -1.109375 C 4.832031 -1.296875 5.066406 -1.550781 5.234375 -1.875 L 6.265625 -1.875 C 5.941406 -0.957031 5.320312 -0.34375 4.40625 -0.03125 C 4.125 0.0703125 3.800781 0.125 3.4375 0.125 C 3.070312 0.125 2.710938 0.046875 2.359375 -0.109375 C 1.992188 -0.265625 1.6875 -0.484375 1.4375 -0.765625 C 0.863281 -1.359375 0.578125 -2.054688 0.578125 -2.859375 C 0.578125 -3.671875 0.863281 -4.367188 1.4375 -4.953125 C 2 -5.546875 2.691406 -5.84375 3.515625 -5.84375 C 4.171875 -5.84375 4.765625 -5.632812 5.296875 -5.21875 C 5.796875 -4.832031 6.132812 -4.316406 6.3125 -3.671875 Z M 6.3125 -3.671875 "/></g></g></g><g fill="#ffffff" fill-opacity="1"><g transform="translate(243.835114, 227.498716)"><g><path d="M 1.890625 -7.703125 C 2.003906 -7.585938 2.0625 -7.453125 2.0625 -7.296875 C 2.0625 -7.128906 2.003906 -6.988281 1.890625 -6.875 C 1.785156 -6.757812 1.65625 -6.703125 1.5 -6.703125 C 1.332031 -6.703125 1.191406 -6.757812 1.078125 -6.875 C 0.960938 -6.988281 0.90625 -7.128906 0.90625 -7.296875 C 0.90625 -7.453125 0.960938 -7.585938 1.078125 -7.703125 C 1.191406 -7.804688 1.332031 -7.859375 1.5 -7.859375 C 1.65625 -7.859375 1.785156 -7.804688 1.890625 -7.703125 Z M 1.953125 0 L 1.046875 0 L 1.046875 -5.71875 L 1.953125 -5.71875 Z M 1.953125 0 "/></g></g></g><g fill="#ffffff" fill-opacity="1"><g transform="translate(246.811207, 227.498716)"><g><path d="M 5.53125 -2.859375 C 5.53125 -3.410156 5.335938 -3.894531 4.953125 -4.3125 C 4.566406 -4.726562 4.085938 -4.9375 3.515625 -4.9375 C 2.941406 -4.9375 2.460938 -4.726562 2.078125 -4.3125 C 1.691406 -3.894531 1.5 -3.410156 1.5 -2.859375 C 1.5 -2.304688 1.691406 -1.820312 2.078125 -1.40625 C 2.460938 -0.988281 2.941406 -0.78125 3.515625 -0.78125 C 4.085938 -0.78125 4.566406 -0.988281 4.953125 -1.40625 C 5.335938 -1.820312 5.53125 -2.304688 5.53125 -2.859375 Z M 6.4375 0 L 5.53125 0 L 5.53125 -0.96875 C 5.476562 -0.90625 5.425781 -0.84375 5.375 -0.78125 C 4.820312 -0.175781 4.148438 0.125 3.359375 0.125 C 2.578125 0.125 1.914062 -0.175781 1.375 -0.78125 C 0.84375 -1.363281 0.578125 -2.054688 0.578125 -2.859375 C 0.578125 -3.660156 0.84375 -4.351562 1.375 -4.9375 C 1.914062 -5.539062 2.578125 -5.84375 3.359375 -5.84375 C 4.148438 -5.84375 4.820312 -5.539062 5.375 -4.9375 C 5.425781 -4.875 5.476562 -4.8125 5.53125 -4.75 L 5.53125 -5.71875 L 6.4375 -5.71875 Z M 6.4375 0 "/></g></g></g><g fill="#ffffff" fill-opacity="1"><g transform="translate(254.218933, 227.498716)"><g/></g></g><g fill="#ffffff" fill-opacity="1"><g transform="translate(257.727863, 227.498716)"><g><path d="M 6.3125 -3.671875 L 5.328125 -3.671875 C 5.171875 -4.035156 4.929688 -4.328125 4.609375 -4.546875 C 4.273438 -4.773438 3.9375 -4.890625 3.59375 -4.890625 C 3.257812 -4.890625 2.972656 -4.835938 2.734375 -4.734375 C 2.484375 -4.617188 2.273438 -4.472656 2.109375 -4.296875 C 1.710938 -3.878906 1.515625 -3.398438 1.515625 -2.859375 C 1.515625 -2.304688 1.710938 -1.832031 2.109375 -1.4375 C 2.484375 -1.019531 2.953125 -0.8125 3.515625 -0.8125 C 3.878906 -0.8125 4.21875 -0.910156 4.53125 -1.109375 C 4.832031 -1.296875 5.066406 -1.550781 5.234375 -1.875 L 6.265625 -1.875 C 5.941406 -0.957031 5.320312 -0.34375 4.40625 -0.03125 C 4.125 0.0703125 3.800781 0.125 3.4375 0.125 C 3.070312 0.125 2.710938 0.046875 2.359375 -0.109375 C 1.992188 -0.265625 1.6875 -0.484375 1.4375 -0.765625 C 0.863281 -1.359375 0.578125 -2.054688 0.578125 -2.859375 C 0.578125 -3.671875 0.863281 -4.367188 1.4375 -4.953125 C 2 -5.546875 2.691406 -5.84375 3.515625 -5.84375 C 4.171875 -5.84375 4.765625 -5.632812 5.296875 -5.21875 C 5.796875 -4.832031 6.132812 -4.316406 6.3125 -3.671875 Z M 6.3125 -3.671875 "/></g></g></g><g fill="#ffffff" fill-opacity="1"><g transform="translate(264.498782, 227.498716)"><g><path d="M 5.65625 -2.890625 C 5.65625 -3.460938 5.453125 -3.953125 5.046875 -4.359375 C 4.640625 -4.765625 4.148438 -4.96875 3.578125 -4.96875 C 3.003906 -4.96875 2.515625 -4.765625 2.109375 -4.359375 C 1.703125 -3.953125 1.5 -3.460938 1.5 -2.890625 C 1.5 -2.328125 1.703125 -1.84375 2.109375 -1.4375 C 2.515625 -1.019531 3.003906 -0.8125 3.578125 -0.8125 C 4.148438 -0.8125 4.640625 -1.019531 5.046875 -1.4375 C 5.453125 -1.84375 5.65625 -2.328125 5.65625 -2.890625 Z M 6.5625 -2.890625 C 6.5625 -2.054688 6.269531 -1.351562 5.6875 -0.78125 C 5.09375 -0.195312 4.390625 0.09375 3.578125 0.09375 C 2.765625 0.09375 2.0625 -0.195312 1.46875 -0.78125 C 0.875 -1.351562 0.578125 -2.054688 0.578125 -2.890625 C 0.578125 -3.710938 0.875 -4.414062 1.46875 -5 C 2.050781 -5.582031 2.753906 -5.875 3.578125 -5.875 C 4.398438 -5.875 5.101562 -5.582031 5.6875 -5 C 6.269531 -4.414062 6.5625 -3.710938 6.5625 -2.890625 Z M 6.5625 -2.890625 "/></g></g></g><g fill="#ffffff" fill-opacity="1"><g transform="translate(271.64659, 227.498716)"><g><path d="M 8.234375 -0.03125 L 8.234375 -3.59375 C 8.234375 -4.1875 8.046875 -4.601562 7.671875 -4.84375 C 7.535156 -4.925781 7.335938 -4.96875 7.078125 -4.96875 C 6.804688 -4.96875 6.550781 -4.890625 6.3125 -4.734375 C 6.082031 -4.578125 5.898438 -4.378906 5.765625 -4.140625 C 5.710938 -4.035156 5.660156 -3.929688 5.609375 -3.828125 C 5.609375 -3.753906 5.609375 -3.675781 5.609375 -3.59375 L 5.609375 -0.03125 L 4.703125 -0.03125 L 4.703125 -3.59375 C 4.703125 -4.1875 4.515625 -4.601562 4.140625 -4.84375 C 4.015625 -4.925781 3.816406 -4.96875 3.546875 -4.96875 C 3.273438 -4.96875 3.023438 -4.890625 2.796875 -4.734375 C 2.554688 -4.578125 2.367188 -4.378906 2.234375 -4.140625 C 2.054688 -3.816406 1.941406 -3.421875 1.890625 -2.953125 L 1.890625 -0.03125 L 0.96875 -0.03125 L 0.96875 -5.75 L 1.890625 -5.75 L 1.890625 -4.84375 C 2.054688 -5.132812 2.269531 -5.367188 2.53125 -5.546875 C 2.832031 -5.765625 3.179688 -5.875 3.578125 -5.875 C 3.972656 -5.875 4.289062 -5.8125 4.53125 -5.6875 C 4.78125 -5.5625 4.984375 -5.394531 5.140625 -5.1875 C 5.234375 -5.0625 5.3125 -4.925781 5.375 -4.78125 C 5.550781 -5.09375 5.78125 -5.347656 6.0625 -5.546875 C 6.351562 -5.765625 6.695312 -5.875 7.09375 -5.875 C 7.5 -5.875 7.820312 -5.8125 8.0625 -5.6875 C 8.300781 -5.5625 8.503906 -5.394531 8.671875 -5.1875 C 8.984375 -4.78125 9.140625 -4.25 9.140625 -3.59375 L 9.140625 -0.03125 Z M 8.234375 -0.03125 "/></g></g></g><g fill="#ffffff" fill-opacity="1"><g transform="translate(281.562551, 227.498716)"><g/></g></g><g fill="#ffffff" fill-opacity="1"><g transform="translate(285.071481, 227.498716)"><g><path d="M 2.765625 0.546875 L 0.125 -5.71875 L 1.125 -5.71875 L 2.765625 -1.46875 L 4.40625 -5.71875 L 5.390625 -5.71875 Z M 2.765625 0.546875 "/></g></g></g><g fill="#ffffff" fill-opacity="1"><g transform="translate(290.594789, 227.498716)"><g><path d="M 5.53125 -2.859375 C 5.53125 -3.410156 5.335938 -3.894531 4.953125 -4.3125 C 4.566406 -4.726562 4.085938 -4.9375 3.515625 -4.9375 C 2.941406 -4.9375 2.460938 -4.726562 2.078125 -4.3125 C 1.691406 -3.894531 1.5 -3.410156 1.5 -2.859375 C 1.5 -2.304688 1.691406 -1.820312 2.078125 -1.40625 C 2.460938 -0.988281 2.941406 -0.78125 3.515625 -0.78125 C 4.085938 -0.78125 4.566406 -0.988281 4.953125 -1.40625 C 5.335938 -1.820312 5.53125 -2.304688 5.53125 -2.859375 Z M 6.4375 0 L 5.53125 0 L 5.53125 -0.96875 C 5.476562 -0.90625 5.425781 -0.84375 5.375 -0.78125 C 4.820312 -0.175781 4.148438 0.125 3.359375 0.125 C 2.578125 0.125 1.914062 -0.175781 1.375 -0.78125 C 0.84375 -1.363281 0.578125 -2.054688 0.578125 -2.859375 C 0.578125 -3.660156 0.84375 -4.351562 1.375 -4.9375 C 1.914062 -5.539062 2.578125 -5.84375 3.359375 -5.84375 C 4.148438 -5.84375 4.820312 -5.539062 5.375 -4.9375 C 5.425781 -4.875 5.476562 -4.8125 5.53125 -4.75 L 5.53125 -5.71875 L 6.4375 -5.71875 Z M 6.4375 0 "/></g></g></g><g fill="#ffffff" fill-opacity="1"><g transform="translate(298.002515, 227.498716)"><g><path d="M 1.890625 0 L 0.96875 0 L 0.96875 -9.75 L 1.890625 -9.75 Z M 1.890625 0 "/></g></g></g><g fill="#ffffff" fill-opacity="1"><g transform="translate(300.861638, 227.498716)"><g><path d="M 5.65625 -2.890625 C 5.65625 -3.460938 5.453125 -3.953125 5.046875 -4.359375 C 4.640625 -4.765625 4.148438 -4.96875 3.578125 -4.96875 C 3.003906 -4.96875 2.515625 -4.765625 2.109375 -4.359375 C 1.703125 -3.953125 1.5 -3.460938 1.5 -2.890625 C 1.5 -2.328125 1.703125 -1.84375 2.109375 -1.4375 C 2.515625 -1.019531 3.003906 -0.8125 3.578125 -0.8125 C 4.148438 -0.8125 4.640625 -1.019531 5.046875 -1.4375 C 5.453125 -1.84375 5.65625 -2.328125 5.65625 -2.890625 Z M 6.5625 -2.890625 C 6.5625 -2.054688 6.269531 -1.351562 5.6875 -0.78125 C 5.09375 -0.195312 4.390625 0.09375 3.578125 0.09375 C 2.765625 0.09375 2.0625 -0.195312 1.46875 -0.78125 C 0.875 -1.351562 0.578125 -2.054688 0.578125 -2.890625 C 0.578125 -3.710938 0.875 -4.414062 1.46875 -5 C 2.050781 -5.582031 2.753906 -5.875 3.578125 -5.875 C 4.398438 -5.875 5.101562 -5.582031 5.6875 -5 C 6.269531 -4.414062 6.5625 -3.710938 6.5625 -2.890625 Z M 6.5625 -2.890625 "/></g></g></g><g fill="#ffffff" fill-opacity="1"><g transform="translate(308.009445, 227.498716)"><g><path d="M 3.90625 -4.53125 C 3.695312 -4.726562 3.472656 -4.828125 3.234375 -4.828125 C 3.003906 -4.828125 2.804688 -4.757812 2.640625 -4.625 C 2.460938 -4.488281 2.316406 -4.328125 2.203125 -4.140625 C 1.992188 -3.753906 1.890625 -3.328125 1.890625 -2.859375 L 1.890625 0 L 0.96875 0 L 0.96875 -5.71875 L 1.890625 -5.71875 L 1.890625 -4.53125 L 1.921875 -4.765625 C 2.222656 -5.484375 2.695312 -5.84375 3.34375 -5.84375 C 3.539062 -5.84375 3.726562 -5.800781 3.90625 -5.71875 Z M 3.90625 -4.53125 "/></g></g></g><g fill="#ffffff" fill-opacity="1"><g transform="translate(312.051212, 227.498716)"><g/></g></g><g fill="#ffffff" fill-opacity="1"><g transform="translate(315.560142, 227.498716)"><g><path d="M 2.140625 -7.28125 C 2.140625 -7.113281 2.082031 -6.972656 1.96875 -6.859375 C 1.863281 -6.742188 1.726562 -6.6875 1.5625 -6.6875 C 1.394531 -6.6875 1.253906 -6.742188 1.140625 -6.859375 C 1.023438 -6.972656 0.96875 -7.113281 0.96875 -7.28125 C 0.96875 -7.445312 1.023438 -7.585938 1.140625 -7.703125 C 1.253906 -7.804688 1.394531 -7.859375 1.5625 -7.859375 C 1.726562 -7.859375 1.863281 -7.804688 1.96875 -7.703125 C 2.082031 -7.585938 2.140625 -7.445312 2.140625 -7.28125 Z M 2.015625 1.09375 C 2.015625 1.625 1.925781 2.039062 1.75 2.34375 C 1.570312 2.644531 1.363281 2.859375 1.125 2.984375 C 0.863281 3.117188 0.601562 3.175781 0.34375 3.15625 C 0.0703125 3.144531 -0.148438 3.082031 -0.328125 2.96875 L -0.328125 2.09375 C -0.210938 2.195312 -0.0703125 2.265625 0.09375 2.296875 C 0.25 2.335938 0.40625 2.332031 0.5625 2.28125 C 0.925781 2.125 1.109375 1.734375 1.109375 1.109375 L 1.109375 -5.71875 L 2.015625 -5.71875 Z M 2.015625 1.09375 "/></g></g></g><g fill="#ffffff" fill-opacity="1"><g transform="translate(318.614204, 227.498716)"><g><path d="M 4.921875 -0.96875 C 4.503906 -0.25 3.867188 0.109375 3.015625 0.109375 C 2.367188 0.109375 1.867188 -0.0976562 1.515625 -0.515625 C 1.148438 -0.941406 0.96875 -1.484375 0.96875 -2.140625 L 0.96875 -5.71875 L 1.890625 -5.71875 L 1.890625 -2.140625 C 1.890625 -1.773438 1.972656 -1.460938 2.140625 -1.203125 C 2.304688 -0.929688 2.585938 -0.796875 2.984375 -0.796875 C 3.691406 -0.796875 4.191406 -1.019531 4.484375 -1.46875 C 4.773438 -1.90625 4.921875 -2.523438 4.921875 -3.328125 L 4.921875 -5.71875 L 5.84375 -5.71875 L 5.84375 0 L 4.921875 0 Z M 4.921875 -0.96875 "/></g></g></g><g fill="#ffffff" fill-opacity="1"><g transform="translate(325.229174, 227.498716)"><g><path d="M 1.8125 -0.8125 C 2.03125 -0.65625 2.320312 -0.578125 2.6875 -0.578125 C 3.519531 -0.578125 3.9375 -0.890625 3.9375 -1.515625 C 3.9375 -1.878906 3.640625 -2.160156 3.046875 -2.359375 C 2.796875 -2.441406 2.523438 -2.519531 2.234375 -2.59375 C 1.941406 -2.65625 1.671875 -2.742188 1.421875 -2.859375 C 1.117188 -2.992188 0.894531 -3.164062 0.75 -3.375 C 0.601562 -3.582031 0.53125 -3.832031 0.53125 -4.125 C 0.53125 -4.695312 0.726562 -5.125 1.125 -5.40625 C 1.53125 -5.695312 2.007812 -5.84375 2.5625 -5.84375 C 3.113281 -5.84375 3.570312 -5.734375 3.9375 -5.515625 C 4.300781 -5.285156 4.550781 -4.878906 4.6875 -4.296875 L 3.703125 -4.296875 C 3.597656 -4.617188 3.445312 -4.832031 3.25 -4.9375 C 3.0625 -5.039062 2.820312 -5.09375 2.53125 -5.09375 C 2.25 -5.09375 2.007812 -5.03125 1.8125 -4.90625 C 1.601562 -4.78125 1.5 -4.59375 1.5 -4.34375 C 1.5 -4.082031 1.582031 -3.890625 1.75 -3.765625 C 1.914062 -3.648438 2.125 -3.550781 2.375 -3.46875 C 2.625 -3.394531 2.898438 -3.328125 3.203125 -3.265625 C 3.484375 -3.191406 3.753906 -3.097656 4.015625 -2.984375 C 4.609375 -2.703125 4.90625 -2.253906 4.90625 -1.640625 C 4.90625 -1.023438 4.679688 -0.566406 4.234375 -0.265625 C 4.015625 -0.117188 3.769531 -0.0078125 3.5 0.0625 C 3.238281 0.132812 2.953125 0.171875 2.640625 0.171875 C 1.316406 0.171875 0.550781 -0.414062 0.34375 -1.59375 L 1.3125 -1.59375 C 1.40625 -1.226562 1.570312 -0.96875 1.8125 -0.8125 Z M 1.8125 -0.8125 "/></g></g></g><g fill="#ffffff" fill-opacity="1"><g transform="translate(330.453574, 227.498716)"><g><path d="M 0.265625 -4.875 L 0.265625 -5.71875 L 1.6875 -5.71875 L 1.6875 -7.9375 L 2.59375 -7.9375 L 2.59375 -5.71875 L 4.015625 -5.71875 L 4.015625 -4.875 L 2.59375 -4.875 L 2.59375 0 L 1.6875 0 L 1.6875 -4.875 Z M 0.265625 -4.875 "/></g></g></g><g fill="#ffffff" fill-opacity="1"><g transform="translate(334.729258, 227.498716)"><g><path d="M 5.65625 -2.890625 C 5.65625 -3.460938 5.453125 -3.953125 5.046875 -4.359375 C 4.640625 -4.765625 4.148438 -4.96875 3.578125 -4.96875 C 3.003906 -4.96875 2.515625 -4.765625 2.109375 -4.359375 C 1.703125 -3.953125 1.5 -3.460938 1.5 -2.890625 C 1.5 -2.328125 1.703125 -1.84375 2.109375 -1.4375 C 2.515625 -1.019531 3.003906 -0.8125 3.578125 -0.8125 C 4.148438 -0.8125 4.640625 -1.019531 5.046875 -1.4375 C 5.453125 -1.84375 5.65625 -2.328125 5.65625 -2.890625 Z M 6.5625 -2.890625 C 6.5625 -2.054688 6.269531 -1.351562 5.6875 -0.78125 C 5.09375 -0.195312 4.390625 0.09375 3.578125 0.09375 C 2.765625 0.09375 2.0625 -0.195312 1.46875 -0.78125 C 0.875 -1.351562 0.578125 -2.054688 0.578125 -2.890625 C 0.578125 -3.710938 0.875 -4.414062 1.46875 -5 C 2.050781 -5.582031 2.753906 -5.875 3.578125 -5.875 C 4.398438 -5.875 5.101562 -5.582031 5.6875 -5 C 6.269531 -4.414062 6.5625 -3.710938 6.5625 -2.890625 Z M 6.5625 -2.890625 "/></g></g></g><g fill="#ffffff" fill-opacity="1"><g transform="translate(341.877065, 227.498716)"><g><path d="M 2.5 -0.09375 C 2.34375 0.0507812 2.164062 0.125 1.96875 0.125 C 1.757812 0.125 1.582031 0.0507812 1.4375 -0.09375 C 1.28125 -0.226562 1.203125 -0.394531 1.203125 -0.59375 C 1.203125 -0.789062 1.28125 -0.96875 1.4375 -1.125 C 1.582031 -1.269531 1.757812 -1.34375 1.96875 -1.34375 C 2.164062 -1.34375 2.34375 -1.269531 2.5 -1.125 C 2.644531 -0.976562 2.71875 -0.804688 2.71875 -0.609375 C 2.71875 -0.398438 2.644531 -0.226562 2.5 -0.09375 Z M 2.625 -9.75 L 2.375 -2.640625 L 1.515625 -2.640625 L 1.28125 -9.75 Z M 2.625 -9.75 "/></g></g></g></svg>