<svg xmlns="http://www.w3.org/2000/svg" xmlns:xlink="http://www.w3.org/1999/xlink" width="500" zoomAndPan="magnify" viewBox="0 0 375 374.999991" height="500" preserveAspectRatio="xMidYMid meet" version="1.0"><defs><clipPath id="62fd0e62da"><path d="M 7.605469 9 L 366 9 L 366 367 L 7.605469 367 Z M 7.605469 9 " clip-rule="nonzero"/></clipPath><clipPath id="910254ca7d"><path d="M 115.765625 113.253906 L 259.683594 113.253906 L 259.683594 257.171875 L 115.765625 257.171875 Z M 115.765625 113.253906 " clip-rule="nonzero"/></clipPath></defs><rect x="-37.5" width="450" fill="#ffffff" y="-37.499999" height="449.999989" fill-opacity="1"/><rect x="-37.5" width="450" fill="#131660" y="-37.499999" height="449.999989" fill-opacity="1"/><g clip-path="url(#62fd0e62da)"><path fill="#ffde59" d="M 72.332031 223.273438 C 76.328125 236.332031 82.632812 248.890625 91.265625 260.34375 L 95.867188 256.789062 C 87.679688 245.921875 81.695312 233.984375 77.894531 221.574219 C 73.847656 208.335938 72.28125 194.554688 73.15625 180.929688 C 74.03125 167.3125 77.339844 153.847656 83.035156 141.242188 C 88.554688 129.023438 96.332031 117.613281 106.292969 107.652344 C 108.371094 105.570312 110.535156 103.574219 112.75 101.667969 C 114.976562 99.761719 117.273438 97.9375 119.609375 96.230469 C 121.960938 94.519531 124.390625 92.882812 126.894531 91.324219 C 129.003906 90.019531 131.148438 88.78125 133.320312 87.628906 L 130.652344 82.457031 C 128.3125 83.703125 126.027344 85.011719 123.792969 86.390625 C 121.195312 88 118.652344 89.71875 116.160156 91.542969 C 113.65625 93.375 111.238281 95.292969 108.910156 97.28125 C 106.601562 99.257812 104.34375 101.339844 102.160156 103.523438 C 91.6875 113.996094 83.519531 125.996094 77.71875 138.820312 C 71.722656 152.078125 68.242188 166.238281 67.328125 180.566406 C 66.429688 194.886719 68.078125 209.367188 72.332031 223.273438 M 215.929688 72.011719 C 209.417969 70.386719 202.746094 69.292969 195.988281 68.777344 L 195.628906 74.589844 C 202.042969 75.082031 208.367188 76.121094 214.539062 77.65625 C 221.191406 79.324219 227.671875 81.582031 233.894531 84.402344 C 240.105469 87.214844 246.066406 90.59375 251.710938 94.5 C 257.316406 98.382812 262.597656 102.769531 267.460938 107.632812 C 269.480469 109.648438 271.4375 111.761719 273.332031 113.964844 C 275.207031 116.140625 276.988281 118.375 278.667969 120.660156 C 280.367188 122.96875 281.984375 125.347656 283.507812 127.777344 C 284.777344 129.808594 286 131.910156 287.15625 134.050781 L 292.304688 131.34375 C 291.089844 129.085938 289.792969 126.863281 288.433594 124.679688 C 286.835938 122.125 285.148438 119.632812 283.355469 117.210938 C 281.550781 114.769531 279.675781 112.402344 277.71875 110.113281 C 275.753906 107.828125 273.714844 105.613281 271.589844 103.5 C 266.460938 98.371094 260.921875 93.765625 255.058594 89.707031 C 249.136719 85.609375 242.855469 82.066406 236.304688 79.097656 C 229.730469 76.144531 222.921875 73.765625 215.929688 72.011719 Z M 194.8125 66.019531 C 202.207031 66.503906 209.492188 67.644531 216.578125 69.417969 C 223.726562 71.210938 230.6875 73.628906 237.375 76.660156 C 244.058594 79.6875 250.488281 83.3125 256.554688 87.515625 C 262.578125 91.6875 268.253906 96.402344 273.464844 101.617188 C 275.628906 103.789062 277.730469 106.046875 279.738281 108.394531 C 281.746094 110.730469 283.675781 113.152344 285.507812 115.644531 C 287.332031 118.117188 289.0625 120.671875 290.699219 123.277344 C 292.328125 125.882812 293.859375 128.550781 295.304688 131.292969 L 295.921875 132.476562 L 286.03125 137.6875 L 285.40625 136.503906 C 284.117188 134.050781 282.714844 131.621094 281.210938 129.222656 C 279.730469 126.839844 278.144531 124.523438 276.484375 122.269531 C 274.835938 120.03125 273.09375 117.847656 271.28125 115.726562 C 269.480469 113.636719 267.5625 111.578125 265.546875 109.558594 C 260.777344 104.789062 255.625 100.492188 250.175781 96.722656 C 244.675781 92.914062 238.855469 89.625 232.78125 86.875 C 226.703125 84.125 220.378906 81.921875 213.878906 80.292969 C 207.429688 78.675781 200.816406 77.636719 194.113281 77.203125 L 192.773438 77.121094 L 193.472656 65.964844 Z M 186.871094 290.152344 C 167.640625 290.152344 149.203125 284.726562 133.414062 275 C 117.632812 265.289062 104.488281 251.269531 95.835938 234.089844 L 100.894531 231.535156 C 109.082031 247.765625 121.484375 261.011719 136.390625 270.179688 C 151.285156 279.347656 168.679688 284.46875 186.871094 284.46875 Z M 87.019531 208.800781 C 86.320312 205.414062 85.792969 201.980469 85.445312 198.542969 C 85.09375 195.050781 84.910156 191.597656 84.910156 188.199219 C 84.910156 176.179688 87.042969 164.324219 91.121094 153.179688 C 95.199219 142.035156 101.214844 131.601562 108.980469 122.402344 L 113.308594 126.070312 C 105.972656 134.761719 100.289062 144.597656 96.433594 155.117188 C 92.59375 165.621094 90.585938 176.820312 90.585938 188.199219 C 90.585938 191.527344 90.75 194.804688 91.078125 197.984375 C 91.410156 201.230469 91.902344 204.464844 92.5625 207.667969 Z M 119.621094 111.578125 C 124.214844 107.550781 129.148438 103.945312 134.359375 100.8125 C 139.574219 97.679688 145.0625 95.011719 150.769531 92.851562 L 152.765625 98.15625 C 147.378906 100.195312 142.1875 102.71875 137.277344 105.664062 C 132.351562 108.621094 127.695312 112.03125 123.359375 115.832031 Z M 164.683594 88.6875 C 168.351562 87.875 172.039062 87.257812 175.714844 86.855469 C 179.464844 86.445312 183.183594 86.238281 186.871094 86.238281 C 214.621094 86.238281 239.824219 97.339844 258.230469 115.386719 C 276.628906 133.421875 288.238281 158.402344 288.804688 186.140625 L 283.148438 186.253906 C 282.613281 160.058594 271.652344 136.460938 254.265625 119.425781 C 236.890625 102.398438 213.097656 91.921875 186.882812 91.921875 C 183.316406 91.921875 179.796875 92.117188 176.34375 92.5 C 172.8125 92.890625 169.332031 93.46875 165.921875 94.230469 Z M 283.765625 219.914062 C 277.96875 237.632812 267.554688 253.0625 254.019531 264.90625 C 240.484375 276.753906 223.808594 285.023438 205.484375 288.433594 L 204.464844 282.859375 C 221.769531 279.648438 237.507812 271.839844 250.289062 260.640625 C 263.074219 249.457031 272.898438 234.890625 278.378906 218.152344 Z M 281.285156 261.898438 C 281.972656 261.011719 282.675781 260.097656 283.375 259.128906 L 278.636719 255.730469 C 277.976562 256.625 277.308594 257.5 276.628906 258.375 C 275.640625 259.632812 274.671875 260.839844 273.722656 261.949219 C 271.757812 264.269531 269.65625 266.542969 267.429688 268.769531 C 257.242188 278.957031 245.5625 286.835938 233.070312 292.378906 C 220.164062 298.105469 206.378906 301.328125 192.484375 302.007812 C 178.570312 302.699219 164.53125 300.84375 151.121094 296.425781 C 138.554688 292.285156 126.523438 285.867188 115.65625 277.175781 L 111.96875 281.664062 C 123.402344 290.832031 136.058594 297.578125 149.296875 301.945312 C 163.398438 306.601562 178.148438 308.550781 192.761719 307.828125 C 207.378906 307.105469 221.882812 303.71875 235.457031 297.703125 C 248.582031 291.882812 260.847656 283.601562 271.5625 272.910156 C 272.683594 271.796875 273.796875 270.632812 274.910156 269.429688 C 276 268.246094 277.09375 267.007812 278.171875 265.730469 C 279.277344 264.414062 280.316406 263.144531 281.285156 261.898438 Z M 286.351562 259.613281 C 285.457031 260.867188 284.457031 262.1875 283.394531 263.558594 C 282.335938 264.90625 281.273438 266.214844 280.222656 267.460938 C 279.132812 268.75 278.019531 270.015625 276.886719 271.242188 C 275.773438 272.445312 274.628906 273.640625 273.464844 274.804688 C 262.527344 285.746094 249.980469 294.210938 236.550781 300.164062 C 222.675781 306.3125 207.851562 309.773438 192.898438 310.515625 C 177.953125 311.257812 162.871094 309.261719 148.460938 304.511719 C 134.527344 299.917969 121.207031 292.71875 109.238281 282.902344 L 108.199219 282.058594 L 115.285156 273.433594 L 116.324219 274.28125 C 127.191406 283.191406 139.292969 289.71875 151.964844 293.902344 C 165.066406 298.226562 178.785156 300.03125 192.371094 299.363281 C 205.9375 298.691406 219.390625 295.539062 232.007812 289.945312 C 244.191406 284.539062 255.59375 276.84375 265.546875 266.894531 C 267.738281 264.699219 269.800781 262.476562 271.683594 260.242188 C 272.683594 259.066406 273.632812 257.902344 274.527344 256.75 C 275.445312 255.574219 276.359375 254.359375 277.257812 253.101562 L 278.039062 252.011719 L 287.136719 258.53125 Z M 63.867188 233.367188 C 55.347656 210.148438 53.71875 185.511719 58.457031 162.171875 C 63.195312 138.832031 74.277344 116.769531 91.183594 98.710938 L 92.828125 100.257812 C 76.226562 118.003906 65.328125 139.6875 60.683594 162.625 C 56.027344 185.5625 57.625 209.769531 66.007812 232.59375 Z M 117.777344 76.875 C 121.566406 74.527344 125.460938 72.375 129.449219 70.425781 C 133.433594 68.480469 137.53125 66.738281 141.714844 65.203125 C 156.238281 59.867188 171.484375 57.199219 186.726562 57.179688 C 201.972656 57.160156 217.214844 59.808594 231.738281 65.101562 L 230.96875 67.234375 C 216.679688 62.023438 201.695312 59.425781 186.726562 59.445312 C 171.761719 59.46875 156.785156 62.09375 142.496094 67.335938 C 138.398438 68.839844 134.371094 70.5625 130.445312 72.476562 C 126.523438 74.390625 122.691406 76.503906 118.980469 78.800781 Z M 249.519531 73.136719 C 256.410156 76.886719 262.941406 81.242188 269.027344 86.132812 C 275.105469 91.027344 280.757812 96.476562 285.898438 102.410156 L 284.1875 103.890625 C 279.140625 98.074219 273.589844 92.714844 267.617188 87.90625 C 261.632812 83.085938 255.214844 78.8125 248.445312 75.125 Z M 297.085938 117.355469 C 299.679688 121.394531 302.050781 125.5625 304.171875 129.839844 C 306.304688 134.125 308.210938 138.542969 309.855469 143.042969 C 322.144531 176.519531 319.921875 211.851562 306.3125 242.039062 C 292.707031 272.230469 267.71875 297.300781 234.5 310.257812 L 233.675781 308.148438 C 266.328125 295.40625 290.882812 270.777344 304.253906 241.101562 C 317.625 211.4375 319.808594 176.714844 307.734375 143.816406 C 306.109375 139.386719 304.242188 135.0625 302.140625 130.839844 C 300.050781 126.625 297.722656 122.527344 295.179688 118.570312 Z M 99 303.246094 C 77.285156 286.660156 61.167969 264.660156 51.730469 240.082031 C 42.296875 215.515625 39.554688 188.375 44.582031 161.523438 L 50.15625 162.5625 C 45.316406 188.375 47.953125 214.457031 57.015625 238.054688 C 66.070312 261.652344 81.5625 282.789062 102.441406 298.734375 Z M 56.449219 125.410156 C 58.589844 120.949219 60.949219 116.644531 63.496094 112.484375 C 66.070312 108.289062 68.851562 104.230469 71.835938 100.328125 C 82.210938 86.742188 94.828125 75.214844 109.03125 66.152344 C 123.226562 57.097656 139.007812 50.515625 155.703125 46.839844 L 156.929688 52.371094 C 140.878906 55.914062 125.71875 62.226562 112.082031 70.929688 C 98.445312 79.625 86.332031 90.707031 76.347656 103.769531 C 73.484375 107.519531 70.808594 111.421875 68.335938 115.4375 C 65.851562 119.488281 63.585938 123.628906 61.558594 127.851562 Z M 176.601562 43.78125 C 186.039062 43.191406 194.464844 43.386719 201.765625 44.347656 C 209.214844 45.324219 215.515625 47.105469 220.59375 49.683594 L 218.039062 54.738281 C 213.519531 52.453125 207.824219 50.855469 201.023438 49.960938 C 194.09375 49.054688 186.027344 48.867188 176.921875 49.433594 Z M 247.601562 56.789062 C 252.421875 59.023438 257.109375 61.507812 261.632812 64.226562 C 266.144531 66.945312 270.519531 69.933594 274.742188 73.15625 C 306.054688 97.074219 324.9375 131.320312 330.160156 167.539062 C 335.382812 203.742188 326.945312 241.925781 303.667969 273.722656 L 299.09375 270.375 C 321.464844 239.835938 329.5625 203.144531 324.546875 168.339844 C 319.53125 133.546875 301.402344 100.648438 271.3125 77.65625 C 267.285156 74.589844 263.082031 71.722656 258.707031 69.085938 C 254.339844 66.449219 249.835938 64.0625 245.234375 61.9375 Z M 242.699219 20.953125 C 237.035156 19.058594 231.246094 17.441406 225.363281 16.125 L 221.152344 35.613281 C 226.300781 36.777344 231.398438 38.195312 236.417969 39.875 C 241.863281 41.699219 247.179688 43.8125 252.351562 46.191406 C 257.550781 48.589844 262.621094 51.277344 267.511719 54.222656 C 272.394531 57.171875 277.132812 60.382812 281.695312 63.875 C 298.515625 76.730469 312.011719 92.324219 322.023438 109.558594 C 332.414062 127.460938 339.039062 147.121094 341.746094 167.3125 C 344.457031 187.519531 343.230469 208.253906 337.914062 228.269531 C 332.910156 247.128906 324.257812 265.359375 311.835938 281.914062 L 327.65625 293.996094 C 341.707031 275.320312 351.480469 254.730469 357.136719 233.429688 C 363.121094 210.871094 364.5 187.511719 361.453125 164.746094 C 358.402344 141.960938 350.925781 119.765625 339.214844 99.578125 C 327.933594 80.140625 312.730469 62.546875 293.769531 48.066406 C 288.628906 44.140625 283.28125 40.503906 277.75 37.175781 C 272.21875 33.839844 266.515625 30.8125 260.671875 28.113281 C 254.824219 25.382812 248.808594 22.992188 242.699219 20.953125 Z M 224.621094 13.207031 C 231 14.589844 237.324219 16.328125 243.542969 18.410156 C 249.765625 20.492188 255.875 22.921875 261.816406 25.660156 C 267.761719 28.402344 273.546875 31.472656 279.164062 34.859375 C 284.753906 38.226562 290.183594 41.925781 295.417969 45.910156 C 314.667969 60.609375 330.109375 78.472656 341.550781 98.21875 C 353.4375 118.714844 361.03125 141.25 364.128906 164.386719 C 367.21875 187.488281 365.828125 211.210938 359.753906 234.097656 C 353.902344 256.140625 343.703125 277.421875 328.996094 296.671875 L 328.183594 297.734375 L 308.097656 282.40625 L 308.910156 281.347656 C 321.539062 264.804688 330.304688 246.511719 335.332031 227.578125 C 340.550781 207.90625 341.757812 187.519531 339.101562 167.652344 C 336.441406 147.824219 329.921875 128.488281 319.714844 110.898438 C 309.886719 93.960938 296.621094 78.625 280.078125 65.996094 C 275.609375 62.589844 270.953125 59.414062 266.132812 56.511719 C 261.300781 53.605469 256.328125 50.960938 251.226562 48.609375 C 246.128906 46.25 240.898438 44.179688 235.5625 42.398438 C 230.257812 40.628906 224.816406 39.132812 219.265625 37.9375 L 217.957031 37.652344 L 223.304688 12.921875 Z M 301.257812 322.082031 C 305.808594 318.199219 310.175781 314.070312 314.328125 309.722656 L 299.792969 296.066406 C 296.136719 299.898438 292.296875 303.53125 288.277344 306.953125 C 283.921875 310.671875 279.367188 314.140625 274.640625 317.355469 C 269.890625 320.578125 264.988281 323.535156 259.941406 326.203125 C 254.882812 328.882812 249.671875 331.28125 244.359375 333.394531 C 224.683594 341.179688 204.363281 344.703125 184.429688 344.394531 C 163.738281 344.074219 143.464844 339.613281 124.78125 331.527344 C 106.066406 323.433594 88.925781 311.703125 74.515625 296.828125 C 60.929688 282.808594 49.765625 266 41.988281 246.828125 L 23.476562 254.164062 C 32.242188 275.835938 44.839844 294.820312 60.179688 310.652344 C 76.421875 327.410156 95.722656 340.632812 116.796875 349.75 C 137.902344 358.875 160.769531 363.914062 184.109375 364.285156 C 206.578125 364.632812 229.484375 360.667969 251.679688 351.882812 C 257.71875 349.492188 263.589844 346.785156 269.273438 343.777344 C 274.992188 340.746094 280.53125 337.421875 285.835938 333.816406 C 291.183594 330.210938 296.332031 326.285156 301.257812 322.082031 Z M 317.191406 310.589844 C 312.710938 315.359375 307.972656 319.871094 302.988281 324.113281 C 298 328.355469 292.78125 332.34375 287.339844 336.039062 C 281.921875 339.726562 276.300781 343.105469 270.519531 346.164062 C 264.730469 349.234375 258.769531 351.976562 252.671875 354.394531 C 230.152344 363.304688 206.894531 367.332031 184.070312 366.972656 C 160.378906 366.601562 137.152344 361.484375 115.738281 352.222656 C 94.332031 342.960938 74.730469 329.542969 58.25 312.535156 C 42.378906 296.15625 29.390625 276.441406 20.480469 253.925781 L 19.984375 252.679688 L 43.480469 243.367188 L 43.976562 244.613281 C 51.640625 263.96875 62.792969 280.902344 76.421875 294.972656 C 90.585938 309.589844 107.4375 321.125 125.820312 329.089844 C 144.1875 337.039062 164.109375 341.417969 184.441406 341.726562 C 204.023438 342.023438 223.992188 338.5625 243.359375 330.902344 C 248.613281 328.820312 253.730469 326.460938 258.675781 323.835938 C 263.660156 321.199219 268.492188 318.292969 273.125 315.140625 C 277.75 312 282.230469 308.582031 286.527344 304.914062 C 290.792969 301.277344 294.871094 297.382812 298.753906 293.253906 L 299.671875 292.273438 L 318.109375 309.601562 Z M 13.558594 220.183594 C 14.640625 226.054688 16.03125 231.894531 17.71875 237.664062 L 36.804688 231.90625 C 35.324219 226.828125 34.097656 221.675781 33.140625 216.476562 C 32.089844 210.832031 31.359375 205.144531 30.945312 199.46875 C 30.535156 193.78125 30.421875 188.054688 30.636719 182.308594 C 30.84375 176.582031 31.367188 170.875 32.203125 165.21875 C 35.292969 144.28125 42.410156 124.914062 52.636719 107.804688 C 63.257812 90.046875 77.253906 74.722656 93.601562 62.578125 C 109.96875 50.421875 128.707031 41.441406 148.792969 36.40625 C 167.722656 31.644531 187.851562 30.378906 208.347656 33.230469 L 211.253906 13.539062 C 188.109375 10.292969 165.363281 11.714844 143.980469 17.082031 C 121.351562 22.765625 100.246094 32.871094 81.808594 46.570312 C 63.351562 60.28125 47.550781 77.574219 35.558594 97.597656 C 24.011719 116.871094 15.988281 138.695312 12.507812 162.304688 C 11.558594 168.722656 10.972656 175.171875 10.738281 181.585938 C 10.5 188.023438 10.613281 194.484375 11.085938 200.929688 C 11.558594 207.421875 12.382812 213.839844 13.558594 220.183594 Z M 15.535156 239.710938 C 13.652344 233.460938 12.117188 227.105469 10.921875 220.65625 C 9.726562 214.1875 8.882812 207.667969 8.410156 201.136719 C 7.933594 194.628906 7.820312 188.078125 8.058594 181.515625 C 8.296875 174.964844 8.902344 168.421875 9.851562 161.945312 C 13.382812 137.988281 21.53125 115.832031 33.261719 96.25 C 45.4375 75.917969 61.476562 58.363281 80.210938 44.449219 C 98.925781 30.542969 120.363281 20.285156 143.332031 14.515625 C 165.445312 8.964844 189.003906 7.574219 212.960938 11.105469 L 214.292969 11.304688 L 210.605469 36.300781 L 209.273438 36.105469 C 188.683594 33.066406 168.445312 34.261719 149.441406 39.042969 C 129.695312 43.996094 111.289062 52.824219 95.199219 64.773438 C 79.128906 76.699219 65.378906 91.769531 54.933594 109.21875 C 44.882812 126.015625 37.898438 145.050781 34.859375 165.644531 C 34.035156 171.234375 33.519531 176.839844 33.316406 182.433594 C 33.109375 188.046875 33.210938 193.679688 33.625 199.304688 C 34.035156 204.90625 34.757812 210.492188 35.777344 216.011719 C 36.796875 221.511719 38.125 227 39.761719 232.441406 L 40.144531 233.71875 L 15.917969 241.019531 Z M 89.957031 263.042969 C 80.695312 251.054688 73.980469 237.828125 69.765625 224.054688 C 65.421875 209.832031 63.730469 195.03125 64.667969 180.394531 C 65.605469 165.746094 69.160156 151.273438 75.289062 137.71875 C 81.222656 124.585938 89.566406 112.328125 100.277344 101.617188 C 102.460938 99.433594 104.769531 97.300781 107.179688 95.238281 C 109.578125 93.191406 112.050781 91.234375 114.585938 89.367188 C 117.097656 87.523438 119.714844 85.773438 122.402344 84.105469 C 125.089844 82.445312 127.832031 80.882812 130.621094 79.4375 L 131.804688 78.820312 L 136.925781 88.75 L 135.742188 89.367188 C 133.195312 90.6875 130.703125 92.097656 128.292969 93.59375 C 125.882812 95.085938 123.515625 96.683594 121.1875 98.382812 C 118.890625 100.0625 116.644531 101.832031 114.480469 103.695312 C 112.316406 105.550781 110.207031 107.507812 108.175781 109.535156 C 98.433594 119.28125 90.851562 130.414062 85.464844 142.332031 C 79.894531 154.640625 76.667969 167.796875 75.8125 181.09375 C 74.957031 194.402344 76.492188 207.875 80.4375 220.789062 C 84.261719 233.304688 90.367188 245.316406 98.773438 256.214844 L 99.585938 257.273438 L 90.75 264.101562 Z M 89.957031 263.042969 " fill-opacity="1" fill-rule="nonzero"/></g><g clip-path="url(#910254ca7d)"><path fill="#ffffff" d="M 251.671875 178.152344 C 246.808594 173.289062 240.339844 170.613281 233.457031 170.613281 C 226.574219 170.613281 220.105469 173.296875 215.242188 178.152344 C 214.480469 178.914062 213.773438 179.707031 213.128906 180.539062 L 162.699219 155.75 C 162.710938 155.441406 162.71875 155.128906 162.71875 154.8125 C 162.71875 153.074219 162.527344 151.386719 162.167969 149.753906 L 198.871094 135.6875 C 200.703125 143.933594 208.070312 150.109375 216.863281 150.109375 C 227.027344 150.109375 235.292969 141.847656 235.292969 131.683594 C 235.292969 121.519531 227.027344 113.253906 216.863281 113.253906 C 206.699219 113.253906 198.4375 121.519531 198.4375 131.683594 C 198.4375 131.769531 198.4375 131.847656 198.4375 131.933594 L 161.097656 146.238281 C 157.671875 137.53125 149.167969 131.34375 139.253906 131.34375 C 126.316406 131.34375 115.785156 141.867188 115.785156 154.8125 C 115.785156 167.757812 126.308594 178.277344 139.253906 178.277344 C 150.558594 178.277344 160.007812 170.246094 162.226562 159.601562 L 211.070312 183.605469 C 208.871094 187.449219 207.703125 191.8125 207.703125 196.359375 C 207.703125 199.757812 208.359375 203.046875 209.605469 206.097656 L 196.429688 211.917969 C 194.757812 206.8125 191.890625 202.121094 187.980469 198.210938 C 181.425781 191.65625 172.71875 188.058594 163.453125 188.058594 C 154.1875 188.058594 145.480469 191.667969 138.925781 198.210938 C 132.371094 204.765625 128.769531 213.472656 128.769531 222.742188 C 128.769531 232.007812 132.378906 240.714844 138.925781 247.269531 C 145.480469 253.824219 154.1875 257.425781 163.453125 257.425781 C 172.71875 257.425781 181.425781 253.8125 187.980469 247.269531 C 194.535156 240.714844 198.136719 232.007812 198.136719 222.742188 C 198.136719 220.28125 197.875 217.855469 197.382812 215.5 L 211.226562 209.382812 C 212.328125 211.242188 213.667969 212.992188 215.242188 214.566406 C 220.105469 219.429688 226.574219 222.105469 233.457031 222.105469 C 240.339844 222.105469 246.808594 219.421875 251.671875 214.566406 C 256.539062 209.699219 259.210938 203.230469 259.210938 196.347656 C 259.210938 189.464844 256.527344 183.019531 251.671875 178.152344 Z M 216.863281 116.921875 C 225 116.921875 231.632812 123.546875 231.632812 131.691406 C 231.632812 139.839844 225.011719 146.460938 216.863281 146.460938 C 208.726562 146.460938 202.09375 139.839844 202.09375 131.691406 C 202.09375 123.546875 208.714844 116.921875 216.863281 116.921875 Z M 139.253906 174.609375 C 128.335938 174.609375 119.453125 165.730469 119.453125 154.8125 C 119.453125 143.894531 128.335938 135.011719 139.253906 135.011719 C 150.171875 135.011719 159.050781 143.894531 159.050781 154.8125 C 159.050781 165.730469 150.171875 174.609375 139.253906 174.609375 Z M 163.460938 253.765625 C 146.359375 253.765625 132.449219 239.847656 132.449219 222.75 C 132.449219 205.65625 146.367188 191.734375 163.460938 191.734375 C 180.558594 191.734375 194.476562 205.65625 194.476562 222.75 C 194.476562 239.847656 180.566406 253.765625 163.460938 253.765625 Z M 233.457031 218.453125 C 221.273438 218.453125 211.363281 208.542969 211.363281 196.359375 C 211.363281 184.175781 221.273438 174.261719 233.457031 174.261719 C 245.640625 174.261719 255.554688 184.175781 255.554688 196.359375 C 255.554688 208.542969 245.640625 218.453125 233.457031 218.453125 Z M 233.457031 218.453125 " fill-opacity="1" fill-rule="nonzero"/></g><path fill="#ffffff" d="M 176.457031 209.292969 C 176.457031 210.082031 176.378906 210.863281 176.226562 211.636719 C 176.070312 212.414062 175.84375 213.164062 175.542969 213.894531 C 175.238281 214.621094 174.867188 215.316406 174.429688 215.972656 C 173.992188 216.628906 173.492188 217.234375 172.9375 217.792969 C 172.378906 218.351562 171.769531 218.847656 171.113281 219.285156 C 170.457031 219.726562 169.765625 220.09375 169.035156 220.398438 C 168.308594 220.699219 167.554688 220.925781 166.78125 221.082031 C 166.007812 221.234375 165.226562 221.3125 164.4375 221.3125 C 163.648438 221.3125 162.867188 221.234375 162.09375 221.082031 C 161.320312 220.925781 160.566406 220.699219 159.839844 220.398438 C 159.109375 220.09375 158.417969 219.726562 157.761719 219.285156 C 157.105469 218.847656 156.496094 218.351562 155.941406 217.792969 C 155.382812 217.234375 154.882812 216.628906 154.445312 215.972656 C 154.007812 215.316406 153.636719 214.621094 153.335938 213.894531 C 153.03125 213.164062 152.804688 212.414062 152.652344 211.640625 C 152.496094 210.863281 152.417969 210.082031 152.417969 209.292969 C 152.417969 208.503906 152.496094 207.722656 152.652344 206.949219 C 152.804688 206.175781 153.03125 205.425781 153.335938 204.695312 C 153.636719 203.964844 154.007812 203.273438 154.445312 202.617188 C 154.882812 201.960938 155.382812 201.355469 155.941406 200.796875 C 156.496094 200.238281 157.105469 199.738281 157.761719 199.300781 C 158.417969 198.863281 159.109375 198.492188 159.839844 198.191406 C 160.566406 197.890625 161.320312 197.660156 162.09375 197.507812 C 162.867188 197.351562 163.648438 197.277344 164.4375 197.277344 C 165.226562 197.277344 166.007812 197.351562 166.78125 197.507812 C 167.554688 197.660156 168.308594 197.890625 169.035156 198.191406 C 169.765625 198.492188 170.457031 198.863281 171.113281 199.300781 C 171.769531 199.738281 172.378906 200.238281 172.9375 200.796875 C 173.492188 201.355469 173.992188 201.960938 174.429688 202.617188 C 174.867188 203.273438 175.238281 203.964844 175.542969 204.695312 C 175.84375 205.425781 176.070312 206.175781 176.226562 206.949219 C 176.378906 207.722656 176.457031 208.503906 176.457031 209.292969 Z M 176.457031 209.292969 " fill-opacity="1" fill-rule="nonzero"/><path fill="#ffffff" d="M 241.816406 186.40625 C 241.816406 186.957031 241.761719 187.5 241.65625 188.039062 C 241.550781 188.574219 241.390625 189.097656 241.179688 189.605469 C 240.96875 190.113281 240.714844 190.59375 240.40625 191.050781 C 240.101562 191.507812 239.757812 191.929688 239.367188 192.316406 C 238.980469 192.707031 238.558594 193.050781 238.101562 193.355469 C 237.644531 193.664062 237.164062 193.917969 236.65625 194.128906 C 236.148438 194.339844 235.625 194.5 235.089844 194.605469 C 234.550781 194.710938 234.007812 194.765625 233.457031 194.765625 C 232.910156 194.765625 232.363281 194.710938 231.828125 194.605469 C 231.289062 194.5 230.765625 194.339844 230.257812 194.128906 C 229.75 193.917969 229.269531 193.664062 228.8125 193.355469 C 228.355469 193.050781 227.933594 192.707031 227.546875 192.316406 C 227.160156 191.929688 226.8125 191.507812 226.507812 191.050781 C 226.203125 190.59375 225.945312 190.113281 225.734375 189.605469 C 225.523438 189.097656 225.367188 188.574219 225.257812 188.039062 C 225.152344 187.5 225.097656 186.957031 225.097656 186.40625 C 225.097656 185.859375 225.152344 185.3125 225.257812 184.777344 C 225.367188 184.238281 225.523438 183.714844 225.734375 183.207031 C 225.945312 182.699219 226.203125 182.21875 226.507812 181.761719 C 226.8125 181.304688 227.160156 180.882812 227.546875 180.496094 C 227.933594 180.105469 228.355469 179.761719 228.8125 179.457031 C 229.269531 179.152344 229.75 178.894531 230.257812 178.683594 C 230.765625 178.472656 231.289062 178.316406 231.828125 178.207031 C 232.363281 178.101562 232.910156 178.046875 233.457031 178.046875 C 234.007812 178.046875 234.550781 178.101562 235.089844 178.207031 C 235.625 178.316406 236.148438 178.472656 236.65625 178.683594 C 237.164062 178.894531 237.644531 179.152344 238.101562 179.457031 C 238.558594 179.761719 238.980469 180.105469 239.367188 180.496094 C 239.757812 180.882812 240.101562 181.304688 240.40625 181.761719 C 240.714844 182.21875 240.96875 182.699219 241.179688 183.207031 C 241.390625 183.714844 241.550781 184.238281 241.65625 184.777344 C 241.761719 185.3125 241.816406 185.859375 241.816406 186.40625 Z M 241.816406 186.40625 " fill-opacity="1" fill-rule="nonzero"/><path fill="#ffffff" d="M 147.613281 146.453125 C 147.613281 147 147.558594 147.546875 147.453125 148.082031 C 147.34375 148.621094 147.1875 149.144531 146.976562 149.652344 C 146.765625 150.160156 146.507812 150.640625 146.203125 151.097656 C 145.898438 151.554688 145.550781 151.976562 145.164062 152.363281 C 144.777344 152.75 144.355469 153.097656 143.898438 153.402344 C 143.441406 153.707031 142.960938 153.964844 142.453125 154.175781 C 141.945312 154.386719 141.421875 154.542969 140.882812 154.652344 C 140.34375 154.757812 139.800781 154.8125 139.253906 154.8125 C 138.703125 154.8125 138.160156 154.757812 137.621094 154.652344 C 137.082031 154.542969 136.5625 154.386719 136.054688 154.175781 C 135.546875 153.964844 135.066406 153.707031 134.609375 153.402344 C 134.152344 153.097656 133.730469 152.75 133.34375 152.363281 C 132.953125 151.976562 132.605469 151.554688 132.300781 151.097656 C 131.996094 150.640625 131.738281 150.160156 131.53125 149.652344 C 131.320312 149.144531 131.160156 148.621094 131.054688 148.082031 C 130.945312 147.546875 130.894531 147 130.894531 146.453125 C 130.894531 145.902344 130.945312 145.359375 131.054688 144.820312 C 131.160156 144.28125 131.320312 143.761719 131.53125 143.253906 C 131.738281 142.746094 131.996094 142.265625 132.300781 141.808594 C 132.605469 141.351562 132.953125 140.929688 133.34375 140.542969 C 133.730469 140.152344 134.152344 139.808594 134.609375 139.5 C 135.066406 139.195312 135.546875 138.9375 136.054688 138.730469 C 136.5625 138.519531 137.082031 138.359375 137.621094 138.253906 C 138.160156 138.144531 138.703125 138.09375 139.253906 138.09375 C 139.800781 138.09375 140.34375 138.144531 140.882812 138.253906 C 141.421875 138.359375 141.945312 138.519531 142.453125 138.730469 C 142.960938 138.9375 143.441406 139.195312 143.898438 139.5 C 144.355469 139.808594 144.777344 140.152344 145.164062 140.542969 C 145.550781 140.929688 145.898438 141.351562 146.203125 141.808594 C 146.507812 142.265625 146.765625 142.746094 146.976562 143.253906 C 147.1875 143.761719 147.34375 144.28125 147.453125 144.820312 C 147.558594 145.359375 147.613281 145.902344 147.613281 146.453125 Z M 147.613281 146.453125 " fill-opacity="1" fill-rule="nonzero"/><path fill="#ffffff" d="M 222.125 127.910156 C 222.125 128.253906 222.089844 128.597656 222.023438 128.933594 C 221.957031 129.273438 221.855469 129.601562 221.722656 129.921875 C 221.59375 130.242188 221.429688 130.542969 221.238281 130.832031 C 221.046875 131.117188 220.828125 131.382812 220.582031 131.628906 C 220.339844 131.875 220.074219 132.089844 219.785156 132.28125 C 219.5 132.476562 219.195312 132.636719 218.878906 132.769531 C 218.558594 132.902344 218.230469 133 217.890625 133.070312 C 217.550781 133.136719 217.210938 133.167969 216.863281 133.167969 C 216.519531 133.167969 216.175781 133.136719 215.835938 133.070312 C 215.5 133 215.167969 132.902344 214.851562 132.769531 C 214.53125 132.636719 214.226562 132.476562 213.941406 132.28125 C 213.652344 132.089844 213.386719 131.875 213.144531 131.628906 C 212.898438 131.382812 212.679688 131.117188 212.488281 130.832031 C 212.296875 130.542969 212.136719 130.242188 212.003906 129.921875 C 211.871094 129.601562 211.769531 129.273438 211.703125 128.933594 C 211.636719 128.597656 211.601562 128.253906 211.601562 127.910156 C 211.601562 127.5625 211.636719 127.222656 211.703125 126.882812 C 211.769531 126.542969 211.871094 126.214844 212.003906 125.894531 C 212.136719 125.578125 212.296875 125.273438 212.488281 124.984375 C 212.679688 124.699219 212.898438 124.433594 213.144531 124.1875 C 213.386719 123.945312 213.652344 123.726562 213.941406 123.535156 C 214.226562 123.34375 214.53125 123.179688 214.851562 123.046875 C 215.167969 122.917969 215.5 122.816406 215.835938 122.75 C 216.175781 122.679688 216.519531 122.648438 216.863281 122.648438 C 217.210938 122.648438 217.550781 122.679688 217.890625 122.75 C 218.230469 122.816406 218.558594 122.917969 218.878906 123.046875 C 219.195312 123.179688 219.5 123.34375 219.785156 123.535156 C 220.074219 123.726562 220.339844 123.945312 220.582031 124.1875 C 220.828125 124.433594 221.046875 124.699219 221.238281 124.984375 C 221.429688 125.273438 221.59375 125.578125 221.722656 125.894531 C 221.855469 126.214844 221.957031 126.542969 222.023438 126.882812 C 222.089844 127.222656 222.125 127.5625 222.125 127.910156 Z M 222.125 127.910156 " fill-opacity="1" fill-rule="nonzero"/><path fill="#ffffff" d="M 173.320312 223.175781 C 170.75 224.824219 167.699219 225.78125 164.429688 225.78125 C 161.039062 225.78125 157.894531 224.757812 155.277344 223 C 148.597656 225.664062 143.414062 231.253906 141.300781 238.195312 C 146.183594 245.183594 154.292969 249.769531 163.453125 249.769531 C 173.15625 249.769531 181.679688 244.625 186.4375 236.929688 C 184.167969 230.714844 179.390625 225.722656 173.320312 223.175781 Z M 173.320312 223.175781 " fill-opacity="1" fill-rule="nonzero"/><path fill="#ffffff" d="M 241.226562 196.589844 C 239.066406 198.242188 236.371094 199.226562 233.449219 199.226562 C 230.550781 199.226562 227.867188 198.261719 225.714844 196.628906 C 221.863281 198.664062 218.902344 202.152344 217.570312 206.371094 C 220.898438 211.628906 226.769531 215.132812 233.449219 215.132812 C 240.175781 215.132812 246.082031 211.570312 249.40625 206.242188 C 248.054688 202.054688 245.078125 198.597656 241.226562 196.589844 Z M 241.226562 196.589844 " fill-opacity="1" fill-rule="nonzero"/><path fill="#ffffff" d="M 144.550781 155.816406 C 142.988281 156.703125 141.175781 157.214844 139.242188 157.214844 C 137.332031 157.214844 135.535156 156.714844 133.980469 155.835938 C 129.878906 157.390625 126.644531 160.691406 125.167969 164.832031 C 128.304688 169.222656 133.441406 172.089844 139.242188 172.089844 C 145.082031 172.089844 150.265625 169.175781 153.394531 164.726562 C 151.898438 160.613281 148.65625 157.339844 144.550781 155.816406 Z M 144.550781 155.816406 " fill-opacity="1" fill-rule="nonzero"/><path fill="#ffffff" d="M 216.863281 144.628906 C 220.984375 144.628906 224.671875 142.6875 227.039062 139.667969 C 225.957031 137.003906 223.792969 134.898438 221.09375 133.882812 C 219.894531 134.734375 218.4375 135.234375 216.855469 135.234375 C 215.484375 135.234375 214.210938 134.859375 213.109375 134.203125 C 210.445312 135.457031 208.398438 137.8125 207.578125 140.691406 C 209.933594 143.113281 213.222656 144.628906 216.863281 144.628906 Z M 216.863281 144.628906 " fill-opacity="1" fill-rule="nonzero"/></svg>